<?xml version="1.0" encoding="UTF-8"?>
<svg xmlns="http://www.w3.org/2000/svg" xmlns:xlink="http://www.w3.org/1999/xlink" width="339.24pt" height="339.24pt" viewBox="0 0 339.24 339.24" version="1.1">
<g id="surface1">
<path style=" stroke:none;fill-rule:evenodd;fill:rgb(100%,100%,100%);fill-opacity:1;" d="M 128.285156 82.003906 C 128.285156 82.003906 145.542969 75.484375 154.902344 86.753906 C 173.675781 73.664063 185.6875 86.015625 185.6875 86.015625 L 203.316406 58.445313 C 203.316406 58.445313 190.925781 46.109375 175.925781 56.613281 C 163.546875 46.109375 151.175781 52.980469 151.175781 52.980469 L 128.285156 82.003906 "/>
<path style=" stroke:none;fill-rule:nonzero;fill:rgb(13.299561%,12.199402%,12.5%);fill-opacity:1;" d="M 128.773438 81.886719 C 128.773438 81.886719 129.25 81.644531 129.445313 81.582031 C 131.109375 81.058594 135.050781 80.152344 139.558594 80.152344 C 144.761719 80.152344 150.738281 81.546875 155.019531 86.707031 L 155.140625 86.847656 L 155.28125 86.742188 C 161.753906 82.230469 167.398438 80.769531 172.023438 80.769531 C 176.378906 80.769531 179.828125 82.066406 182.1875 83.378906 C 183.367188 84.03125 184.277344 84.683594 184.878906 85.171875 C 185.183594 85.410156 185.429688 85.617188 185.578125 85.765625 C 185.734375 85.898438 185.804688 85.984375 185.804688 85.984375 L 185.976563 86.15625 L 203.816406 58.253906 L 203.714844 58.148438 C 203.699219 58.132813 197.574219 52.027344 188.667969 52.023438 C 184.878906 52.019531 180.582031 53.136719 176.078125 56.292969 L 176.183594 56.445313 L 176.308594 56.304688 C 170.917969 51.71875 165.507813 50.414063 161.121094 50.421875 C 155.375 50.421875 151.363281 52.652344 151.355469 52.660156 L 151.320313 52.675781 L 128.792969 81.457031 L 128.773438 81.886719 L 129.46875 81.25 L 129.578125 81.015625 L 151.597656 52.941406 L 151.441406 52.820313 L 151.535156 52.984375 C 151.535156 52.984375 151.769531 52.855469 152.238281 52.652344 C 153.601563 52.027344 156.882813 50.796875 161.121094 50.796875 C 165.4375 50.796875 170.734375 52.074219 176.0625 56.589844 L 176.171875 56.6875 L 176.296875 56.605469 C 180.746094 53.484375 184.949219 52.394531 188.667969 52.394531 C 193.035156 52.394531 196.738281 53.898438 199.332031 55.40625 C 200.640625 56.15625 201.664063 56.914063 202.375 57.480469 C 202.714844 57.753906 202.988281 57.984375 203.167969 58.160156 C 203.355469 58.320313 203.441406 58.40625 203.441406 58.40625 L 203.574219 58.277344 L 203.410156 58.175781 L 185.78125 85.757813 L 185.9375 85.851563 L 186.078125 85.71875 C 186.070313 85.703125 180.898438 80.390625 172.023438 80.390625 C 167.316406 80.390625 161.589844 81.886719 155.058594 86.433594 L 155.171875 86.589844 L 155.328125 86.472656 C 150.933594 81.183594 144.832031 79.777344 139.558594 79.777344 C 134.945313 79.777344 131.207031 80.675781 129.609375 81.15625 C 129.109375 81.308594 128.773438 81.886719 128.773438 81.886719 "/>
<path style=" stroke:none;fill-rule:nonzero;fill:rgb(100%,100%,100%);fill-opacity:1;" d="M 185.390625 88.253906 L 203.910156 59.921875 L 201.96875 60.550781 L 185.78125 85.882813 C 185.78125 85.882813 173.769531 73.535156 155 86.621094 C 151.28125 82.148438 146.320313 80.484375 141.679688 80.089844 L 132.203125 83.175781 C 134.09375 82.785156 136.464844 82.4375 139.054688 82.4375 C 144.269531 82.4375 150.292969 83.835938 154.644531 89.003906 C 161.121094 84.519531 166.804688 83.046875 171.464844 83.046875 C 179.664063 83.046875 184.699219 87.589844 185.390625 88.253906 "/>
<path style=" stroke:none;fill-rule:nonzero;fill:rgb(13.299561%,12.199402%,12.5%);fill-opacity:1;" d="M 185.390625 88.253906 L 185.546875 88.363281 L 204.367188 59.574219 L 201.839844 60.390625 L 185.601563 85.785156 L 185.78125 85.882813 L 185.914063 85.757813 C 185.894531 85.734375 180.722656 80.425781 171.851563 80.417969 C 167.144531 80.417969 161.410156 81.914063 154.882813 86.464844 L 155 86.621094 L 155.148438 86.5 C 151.386719 81.984375 146.382813 80.296875 141.710938 79.910156 L 141.675781 79.90625 L 128.878906 84.054688 L 128.863281 84.4375 L 132.230469 83.472656 C 134.121094 83.085938 136.492188 82.628906 139.054688 82.628906 L 139.054688 82.558594 L 139.054688 82.628906 L 139.054688 82.558594 L 139.054688 82.628906 C 144.238281 82.628906 150.199219 84.015625 154.511719 89.132813 L 154.617188 89.269531 L 154.761719 89.15625 C 161.203125 84.695313 166.839844 83.238281 171.464844 83.238281 L 171.464844 83.089844 L 171.453125 83.234375 L 171.464844 83.238281 L 171.464844 83.089844 L 171.453125 83.234375 L 171.464844 83.238281 C 179.59375 83.238281 184.574219 87.742188 185.257813 88.394531 L 185.421875 88.554688 L 185.546875 88.363281 L 185.390625 88.253906 L 185.523438 88.121094 C 184.800781 87.433594 179.742188 82.859375 171.464844 82.859375 L 171.464844 83.046875 L 171.488281 82.859375 L 171.464844 82.859375 C 166.757813 82.855469 161.046875 84.347656 154.539063 88.851563 L 154.644531 89.003906 L 154.800781 88.886719 C 150.398438 83.660156 144.308594 82.253906 139.054688 82.253906 L 139.042969 82.253906 L 139.054688 82.4375 L 139.054688 82.253906 C 136.453125 82.253906 134.054688 82.597656 132.160156 82.988281 L 132.203125 83.175781 L 132.265625 83.355469 L 141.871094 80.234375 L 141.679688 80.089844 L 141.675781 80.28125 C 146.273438 80.671875 151.425781 82.230469 154.847656 86.738281 L 154.964844 86.878906 L 155.097656 86.769531 C 161.578125 82.257813 167.222656 80.796875 171.851563 80.796875 C 176.207031 80.796875 179.652344 82.101563 182.015625 83.40625 C 183.191406 84.0625 184.101563 84.722656 184.71875 85.203125 C 185.019531 85.449219 185.257813 85.65625 185.40625 85.789063 C 185.554688 85.933594 185.625 86.011719 185.625 86.011719 L 185.804688 86.183594 L 202.09375 60.710938 L 203.457031 60.265625 L 185.234375 88.15625 L 185.390625 88.253906 L 185.523438 88.121094 L 185.390625 88.253906 "/>
<path style=" stroke:none;fill-rule:nonzero;fill:rgb(100%,100%,100%);fill-opacity:1;" d="M 202.46875 62.128906 L 185.390625 88.257813 C 184.699219 87.585938 179.664063 83.042969 171.464844 83.042969 C 166.804688 83.042969 161.121094 84.519531 154.644531 89.007813 C 150.851563 84.492188 145.773438 82.855469 141.0625 82.515625 L 128.714844 86.625 C 132.613281 85.421875 146.285156 82.117188 154.25 91.695313 C 173.015625 78.621094 185.007813 90.96875 185.007813 90.96875 L 204.152344 61.5625 L 202.46875 62.128906 "/>
<path style=" stroke:none;fill-rule:nonzero;fill:rgb(13.299561%,12.199402%,12.5%);fill-opacity:1;" d="M 202.46875 62.128906 L 202.316406 62.019531 L 185.234375 88.15625 L 185.390625 88.257813 L 185.523438 88.125 C 184.800781 87.433594 179.742188 82.859375 171.464844 82.859375 L 171.464844 83.042969 L 171.472656 82.859375 L 171.464844 82.859375 C 166.761719 82.855469 161.046875 84.351563 154.542969 88.851563 L 154.644531 89.007813 L 154.800781 88.886719 C 150.953125 84.324219 145.816406 82.667969 141.089844 82.328125 L 141.042969 82.320313 L 128.839844 86.367188 L 128.863281 86.765625 C 130.632813 86.226563 134.335938 85.273438 138.683594 85.273438 C 143.875 85.273438 149.828125 86.664063 154.105469 91.8125 L 154.210938 91.945313 L 154.371094 91.84375 C 160.832031 87.339844 166.472656 85.882813 171.082031 85.882813 C 175.453125 85.882813 178.882813 87.1875 181.246094 88.496094 C 182.441406 89.144531 183.347656 89.800781 183.945313 90.289063 C 184.246094 90.535156 184.484375 90.734375 184.648438 90.875 C 184.800781 91.019531 184.867188 91.097656 184.867188 91.097656 L 185.042969 91.269531 L 204.609375 61.210938 L 202.351563 61.972656 L 202.316406 62.019531 L 202.46875 62.128906 L 202.535156 62.300781 L 203.699219 61.910156 L 184.84375 90.867188 L 185.007813 90.96875 L 185.152344 90.835938 C 185.136719 90.820313 179.964844 85.503906 171.082031 85.503906 C 166.386719 85.503906 160.65625 86.992188 154.144531 91.535156 L 154.25 91.695313 L 154.398438 91.570313 C 150.027344 86.308594 143.929688 84.898438 138.683594 84.898438 C 134.277344 84.898438 130.632813 85.820313 128.839844 86.367188 L 128.863281 86.527344 L 128.863281 86.765625 L 141.136719 82.691406 L 141.0625 82.515625 L 141.058594 82.703125 C 145.722656 83.042969 150.742188 84.667969 154.503906 89.132813 L 154.613281 89.265625 L 154.761719 89.15625 C 161.207031 84.691406 166.839844 83.242188 171.464844 83.242188 L 171.464844 83.136719 L 171.464844 83.242188 L 171.464844 83.136719 L 171.464844 83.242188 C 179.59375 83.242188 184.574219 87.746094 185.257813 88.390625 L 185.421875 88.550781 L 202.628906 62.226563 L 202.46875 62.128906 L 202.535156 62.300781 L 202.46875 62.128906 "/>
<path style=" stroke:none;fill-rule:nonzero;fill:rgb(100%,100%,100%);fill-opacity:1;" d="M 203.175781 63.070313 L 185.007813 90.96875 C 185.007813 90.96875 173.015625 78.621094 154.25 91.695313 C 150.457031 87.128906 145.363281 85.503906 140.648438 85.171875 L 128.660156 89.402344 C 130.949219 88.625 146.34375 83.84375 155 94.238281 C 173.769531 81.179688 185.78125 93.5 185.78125 93.5 L 206.394531 61.929688 L 203.175781 63.070313 "/>
<path style=" stroke:none;fill-rule:nonzero;fill:rgb(13.299561%,12.199402%,12.5%);fill-opacity:1;" d="M 203.175781 63.070313 L 203.011719 62.96875 L 184.84375 90.859375 L 185.007813 90.96875 L 185.152344 90.839844 C 185.136719 90.820313 179.964844 85.503906 171.082031 85.503906 C 166.394531 85.503906 160.65625 86.988281 154.144531 91.53125 L 154.25 91.695313 L 154.402344 91.570313 C 150.566406 86.957031 145.410156 85.316406 140.660156 84.984375 L 140.628906 84.980469 L 128.839844 89.148438 L 128.839844 89.519531 C 129.96875 89.132813 134.242188 87.820313 139.402344 87.820313 C 144.59375 87.820313 150.566406 89.203125 154.847656 94.359375 L 154.964844 94.496094 L 155.097656 94.402344 C 161.589844 89.882813 167.222656 88.429688 171.851563 88.429688 C 176.207031 88.429688 179.652344 89.726563 182.015625 91.039063 C 183.191406 91.683594 184.101563 92.332031 184.71875 92.820313 C 185.019531 93.070313 185.257813 93.265625 185.40625 93.410156 C 185.554688 93.550781 185.625 93.625 185.625 93.625 L 185.804688 93.808594 L 206.855469 61.566406 L 203.050781 62.914063 L 203.011719 62.96875 L 203.175781 63.070313 L 203.246094 63.246094 L 205.925781 62.296875 L 185.617188 93.398438 L 185.78125 93.5 L 185.914063 93.363281 C 185.894531 93.359375 180.722656 88.042969 171.851563 88.042969 C 167.144531 88.042969 161.410156 89.539063 154.882813 94.082031 L 155 94.238281 L 155.148438 94.121094 C 150.761719 88.851563 144.660156 87.433594 139.402344 87.433594 C 134.175781 87.4375 129.992188 88.746094 128.839844 89.148438 L 128.839844 89.519531 L 140.707031 85.34375 L 140.648438 85.171875 L 140.628906 85.355469 C 145.320313 85.695313 150.355469 87.292969 154.105469 91.8125 L 154.214844 91.945313 L 154.371094 91.847656 C 160.832031 87.339844 166.472656 85.882813 171.082031 85.882813 C 175.453125 85.882813 178.882813 87.183594 181.246094 88.496094 C 182.441406 89.148438 183.347656 89.796875 183.945313 90.285156 C 184.246094 90.535156 184.484375 90.738281 184.648438 90.878906 C 184.800781 91.019531 184.867188 91.097656 184.867188 91.097656 L 185.042969 91.273438 L 203.339844 63.167969 L 203.175781 63.070313 L 203.246094 63.246094 L 203.175781 63.070313 "/>
<path style=" stroke:none;fill-rule:evenodd;fill:rgb(13.299561%,12.199402%,12.5%);fill-opacity:1;" d="M 35.976563 222.21875 C 41.617188 219.617188 45.15625 217.578125 48.707031 224.542969 C 50.90625 228.863281 51.011719 231.578125 46.121094 233.898438 L 42.894531 235.445313 L 39.910156 236.867188 C 39.082031 237.273438 38.296875 237.675781 37.464844 238.074219 L 34.359375 231.933594 C 34.574219 231.839844 34.765625 231.753906 34.867188 231.71875 C 35.21875 231.539063 36.023438 231.1875 37.214844 230.628906 L 39.753906 229.433594 L 43.128906 227.828125 L 47.609375 225.683594 L 48.242188 225.375 C 48.09375 224.945313 48.015625 224.792969 47.84375 224.476563 C 45.804688 220.46875 43.816406 219.664063 39.683594 221.347656 C 38.296875 221.886719 37.277344 222.363281 34.984375 223.445313 C 33.777344 224.019531 32.585938 224.625 31.433594 225.21875 C 31.433594 225.253906 31.371094 225.269531 31.371094 225.269531 C 31.054688 225.421875 30.746094 225.375 30.621094 225.089844 C 30.507813 224.851563 30.621094 224.613281 30.921875 224.476563 C 32.585938 223.671875 34.308594 222.953125 35.976563 222.21875 "/>
<path style=" stroke:none;fill-rule:evenodd;fill:rgb(13.299561%,12.199402%,12.5%);fill-opacity:1;" d="M 35.976563 216.316406 L 36.511719 216.148438 L 39.121094 215.273438 C 40.125 214.949219 41.113281 214.582031 42.148438 214.246094 C 42.453125 214.160156 42.683594 214.089844 42.789063 214.011719 C 43.105469 213.925781 43.386719 213.949219 43.496094 214.300781 C 43.589844 214.566406 43.464844 214.769531 43.058594 214.914063 L 43.019531 214.914063 C 40.578125 215.691406 38.070313 216.390625 35.628906 217.171875 C 34.9375 217.378906 33.953125 217.703125 32.632813 218.160156 C 29.890625 219.03125 29.480469 219.171875 27.859375 219.75 C 28.8125 215.714844 29.722656 211.65625 30.550781 207.582031 L 31.273438 204 C 30.527344 204.246094 29.925781 204.40625 29.433594 204.570313 C 28.046875 205.007813 26.667969 205.488281 25.25 205.9375 C 24.90625 206.035156 24.644531 206.128906 24.527344 206.1875 C 24.199219 206.289063 23.769531 206.421875 23.652344 206.027344 C 23.550781 205.710938 23.644531 205.578125 24.171875 205.40625 L 26.230469 204.742188 L 28.8125 204 C 30.246094 203.570313 31.371094 203.226563 32.238281 202.9375 C 34.617188 202.175781 36.957031 201.335938 39.304688 200.609375 C 37.992188 205.8125 36.917969 211.09375 35.976563 216.316406 "/>
<path style=" stroke:none;fill-rule:evenodd;fill:rgb(13.299561%,12.199402%,12.5%);fill-opacity:1;" d="M 37.910156 197.101563 L 37.027344 197.246094 C 33.464844 197.953125 29.890625 198.648438 26.28125 199.386719 L 23.042969 200.078125 L 22.453125 200.210938 L 21.011719 193.519531 L 21.777344 193.359375 L 25.03125 192.746094 L 28.867188 191.976563 L 32.34375 191.261719 L 35.910156 190.53125 L 36.46875 190.402344 L 37.910156 197.101563 "/>
<path style=" stroke:none;fill-rule:evenodd;fill:rgb(13.299561%,12.199402%,12.5%);fill-opacity:1;" d="M 19.390625 171.503906 C 19.492188 171.550781 19.648438 171.632813 19.9375 171.773438 L 32.609375 177.148438 L 36.046875 178.65625 L 24.65625 186.429688 L 20.035156 189.613281 L 19.300781 181.816406 L 28.023438 175.976563 L 23.988281 174.3125 C 22.351563 173.617188 20.636719 173.070313 19.03125 172.382813 C 18.308594 172.128906 18.164063 172.035156 18.125 171.746094 C 18.097656 171.496094 18.273438 171.25 18.554688 171.222656 C 18.679688 171.222656 18.878906 171.265625 19.390625 171.503906 "/>
<path style=" stroke:none;fill-rule:evenodd;fill:rgb(13.299561%,12.199402%,12.5%);fill-opacity:1;" d="M 34.734375 154.394531 L 34.714844 154.734375 L 34.121094 167.441406 L 25.726563 167.003906 C 23.261719 166.898438 20.816406 166.882813 18.355469 166.777344 L 18.90625 154.945313 L 18.9375 154.347656 C 18.976563 153.957031 19.101563 153.800781 19.390625 153.8125 C 19.683594 153.824219 19.800781 153.960938 19.777344 154.367188 L 19.777344 154.394531 L 19.4375 159.984375 L 23.042969 160.175781 L 23.050781 159.90625 L 23.222656 154.175781 C 23.246094 153.574219 23.355469 153.445313 23.671875 153.46875 C 23.984375 153.46875 24.089844 153.648438 24.050781 154.175781 C 24.011719 155.257813 23.910156 156.367188 23.855469 157.4375 L 23.742188 159.953125 L 23.742188 160.21875 C 24.414063 160.257813 25.0625 160.285156 25.726563 160.328125 L 33.671875 160.605469 L 33.902344 154.164063 C 33.925781 153.636719 34.03125 153.46875 34.351563 153.488281 C 34.695313 153.488281 34.753906 153.59375 34.734375 154.394531 "/>
<path style=" stroke:none;fill-rule:evenodd;fill:rgb(13.299561%,12.199402%,12.5%);fill-opacity:1;" d="M 22.859375 137.574219 C 22.328125 138.597656 21.964844 139.695313 21.566406 141.515625 L 22.214844 141.660156 L 26.007813 142.40625 L 29.214844 142.980469 L 31.261719 143.335938 C 31.371094 143.355469 31.492188 143.378906 31.78125 143.421875 C 32.507813 142.945313 32.667969 142.820313 33.285156 142.203125 C 33.355469 141.96875 33.378906 141.832031 33.402344 141.6875 C 34.03125 138.390625 32.101563 135.425781 28.933594 134.851563 C 26.511719 134.425781 24.007813 135.539063 22.859375 137.574219 M 34.097656 138.816406 C 34.324219 139.695313 34.351563 140.140625 34.21875 141.292969 C 35.53125 139.953125 36.503906 138.417969 37.222656 136.742188 C 37.304688 136.519531 37.441406 136.417969 37.632813 136.453125 C 37.863281 136.484375 37.992188 136.722656 37.921875 137.007813 C 37.503906 139.234375 34.5 142.078125 32.820313 143.585938 L 36.300781 144.199219 L 35.042969 150.890625 L 34.542969 150.796875 L 30.839844 150.140625 L 26.398438 149.304688 L 22.859375 148.691406 L 19.894531 148.1875 L 19.523438 148.144531 L 20.371094 143.707031 C 21.105469 139.742188 21.628906 138.039063 22.480469 136.777344 C 23.933594 134.707031 26.535156 133.683594 29.128906 134.132813 C 31.46875 134.546875 33.527344 136.480469 34.097656 138.816406 "/>
<path style=" stroke:none;fill-rule:evenodd;fill:rgb(13.299561%,12.199402%,12.5%);fill-opacity:1;" d="M 40.914063 127.773438 C 40.355469 129.433594 39.304688 130.816406 37.78125 131.777344 C 37.175781 132.171875 36.8125 132.300781 36.546875 132.234375 C 36.347656 132.164063 36.210938 131.945313 36.265625 131.777344 C 36.394531 131.390625 39.15625 130.59375 40.097656 127.773438 C 40.363281 126.960938 40.253906 126.453125 39.738281 126.285156 C 37.574219 125.613281 31.96875 130.722656 27.898438 129.433594 C 25.21875 128.601563 24.089844 125.53125 25.21875 122.117188 C 25.71875 120.640625 26.484375 119.453125 27.480469 118.65625 C 28.023438 118.242188 28.542969 118.027344 28.789063 118.085938 C 28.96875 118.160156 29.074219 118.324219 29 118.550781 C 28.933594 118.757813 26.761719 119.800781 26.066406 121.867188 C 25.855469 122.589844 26.03125 123.175781 26.558594 123.347656 C 28.671875 124.003906 34.8125 118.859375 38.515625 120.007813 C 41.1875 120.851563 42.160156 123.964844 40.914063 127.773438 "/>
<path style=" stroke:none;fill-rule:evenodd;fill:rgb(13.299561%,12.199402%,12.5%);fill-opacity:1;" d="M 43.886719 118.175781 L 43.082031 117.824219 C 39.753906 116.429688 36.394531 114.980469 33.058594 113.5625 L 29.980469 112.335938 L 29.410156 112.109375 L 32.226563 105.835938 L 32.949219 106.140625 L 35.953125 107.445313 L 39.574219 108.96875 L 42.824219 110.324219 L 46.164063 111.703125 L 46.691406 111.910156 L 43.886719 118.175781 "/>
<path style=" stroke:none;fill-rule:evenodd;fill:rgb(13.299561%,12.199402%,12.5%);fill-opacity:1;" d="M 40.425781 92.964844 C 39.703125 93.644531 39.15625 94.425781 38.679688 95.28125 L 43.511719 97.992188 C 45.179688 98.945313 46.410156 99.621094 47.191406 100.058594 C 47.878906 100.4375 49.15625 101.128906 51.085938 102.15625 C 52.234375 100.257813 52.878906 98.210938 52.234375 96.023438 C 51.6875 94.320313 50.496094 92.84375 48.890625 91.941406 C 46.222656 90.449219 42.683594 90.875 40.425781 92.964844 M 52.105469 101.882813 L 51.148438 103.511719 L 48.242188 108.410156 C 45.402344 106.820313 43.230469 105.585938 41.648438 104.707031 C 39.753906 103.65625 38.109375 102.78125 34.542969 100.839844 L 37.5625 95.746094 C 38.84375 93.601563 39.421875 92.84375 40.425781 91.996094 C 42.800781 90.019531 46.550781 89.808594 49.253906 91.3125 C 53.246094 93.535156 54.292969 98.027344 52.105469 101.882813 "/>
<path style=" stroke:none;fill-rule:evenodd;fill:rgb(13.299561%,12.199402%,12.5%);fill-opacity:1;" d="M 53.597656 83.492188 L 53.8125 84.085938 L 55.019531 87.074219 L 56.042969 89.5625 L 56.253906 89.980469 C 57.6875 88.203125 60.527344 84.714844 60.527344 84.714844 Z M 63.765625 85.296875 L 61.414063 84.851563 L 56.5625 90.835938 L 57.160156 92.28125 C 57.324219 92.585938 57.6875 93.113281 57.429688 93.398438 C 57.304688 93.601563 57.089844 93.644531 56.925781 93.535156 C 56.535156 93.234375 55.738281 90.863281 55.460938 90.226563 L 53.480469 85.238281 L 51.335938 79.902344 C 50.859375 78.695313 50.359375 77.449219 49.832031 76.253906 L 68.703125 79.191406 L 63.765625 85.296875 "/>
<path style=" stroke:none;fill-rule:evenodd;fill:rgb(13.299561%,12.199402%,12.5%);fill-opacity:1;" d="M 67.476563 60.550781 C 66.582031 60.988281 65.863281 61.59375 65.128906 62.277344 L 68.957031 66.207031 C 70.285156 67.558594 71.277344 68.566406 71.894531 69.195313 C 72.441406 69.746094 73.476563 70.78125 75.027344 72.273438 C 76.65625 70.753906 77.84375 68.980469 77.90625 66.722656 C 77.90625 64.929688 77.195313 63.203125 75.886719 61.878906 C 73.769531 59.71875 70.261719 59.148438 67.476563 60.550781 M 76.074219 72.292969 L 74.664063 73.59375 L 70.425781 77.503906 C 68.203125 75.191406 66.480469 73.429688 65.21875 72.136719 C 63.71875 70.617188 62.378906 69.304688 59.527344 66.472656 L 63.925781 62.402344 C 65.777344 60.695313 66.558594 60.148438 67.742188 59.621094 C 70.621094 58.355469 74.28125 59.203125 76.433594 61.363281 C 79.605469 64.601563 79.300781 69.195313 76.074219 72.292969 "/>
<path style=" stroke:none;fill-rule:evenodd;fill:rgb(13.299561%,12.199402%,12.5%);fill-opacity:1;" d="M 97.320313 39.28125 C 96.175781 39.945313 95.089844 40.515625 93.953125 41.195313 L 94.25 41.726563 L 95.816406 44.199219 L 97.5625 47.058594 L 99.796875 50.609375 C 100.789063 52.082031 101.335938 52.996094 101.507813 53.269531 C 101.558594 53.34375 101.636719 53.46875 101.730469 53.597656 L 95.730469 57.148438 C 95.019531 56.027344 94.335938 54.890625 93.632813 53.742188 L 91.007813 49.558594 L 89.316406 46.964844 L 87.890625 44.773438 C 86.753906 45.445313 85.664063 46.195313 84.53125 46.855469 C 84.171875 47.070313 83.972656 47.046875 83.824219 46.820313 C 83.65625 46.570313 83.734375 46.382813 84.113281 46.167969 L 84.34375 45.992188 L 94.679688 39.886719 L 96.445313 38.835938 L 96.851563 38.621094 C 97.261719 38.398438 97.445313 38.398438 97.617188 38.671875 C 97.757813 38.859375 97.675781 39.054688 97.320313 39.28125 "/>
<path style=" stroke:none;fill-rule:evenodd;fill:rgb(13.299561%,12.199402%,12.5%);fill-opacity:1;" d="M 120.480469 44.765625 L 120.179688 44.882813 L 108.15625 50.066406 L 104.816406 42.601563 C 103.789063 40.449219 102.695313 38.316406 101.707031 36.144531 L 112.890625 31.316406 L 113.46875 31.0625 C 113.851563 30.933594 114.042969 30.957031 114.15625 31.230469 C 114.277344 31.492188 114.203125 31.644531 113.828125 31.792969 L 113.785156 31.820313 L 108.464844 34.003906 L 109.882813 37.226563 L 110.164063 37.109375 L 115.542969 34.714844 C 116.113281 34.464844 116.273438 34.476563 116.414063 34.742188 C 116.535156 35.050781 116.429688 35.21875 115.90625 35.4375 C 114.886719 35.867188 113.824219 36.269531 112.804688 36.714844 L 110.441406 37.734375 L 110.199219 37.847656 C 110.441406 38.449219 110.695313 39.039063 110.988281 39.636719 L 114.28125 46.621094 L 120.34375 43.945313 C 120.832031 43.722656 121.046875 43.734375 121.152344 44.015625 C 121.304688 44.328125 121.21875 44.40625 120.480469 44.765625 "/>
<path style=" stroke:none;fill-rule:evenodd;fill:rgb(13.299561%,12.199402%,12.5%);fill-opacity:1;" d="M 136.25 38.085938 C 135.226563 39.808594 133.335938 41.25 131.425781 41.8125 C 126.933594 43.089844 122.285156 40.671875 120.957031 36.355469 C 119.640625 32.109375 122.191406 27.59375 126.542969 26.335938 C 129.011719 25.636719 131.726563 26.019531 133.695313 27.367188 C 134.050781 27.617188 134.269531 27.777344 134.300781 27.949219 C 134.363281 28.101563 134.234375 28.285156 134.078125 28.324219 C 133.859375 28.386719 133.71875 28.339844 133.398438 28.101563 C 131.527344 26.675781 128.945313 26.351563 126.714844 26.996094 C 126.355469 27.082031 126.253906 27.144531 125.953125 27.308594 L 126.085938 27.75 L 126.992188 30.816406 L 128.089844 34.476563 C 128.335938 35.273438 128.675781 36.378906 129.121094 37.738281 L 130.097656 40.828125 L 130.25 41.339844 C 130.738281 41.25 130.945313 41.25 131.1875 41.160156 C 133.882813 40.402344 135.84375 38.222656 136.4375 35.472656 C 136.523438 35.105469 136.621094 34.988281 136.75 34.945313 C 136.984375 34.882813 137.175781 34.960938 137.234375 35.105469 C 137.375 35.53125 136.875 37.007813 136.25 38.085938 "/>
<path style=" stroke:none;fill-rule:evenodd;fill:rgb(13.299561%,12.199402%,12.5%);fill-opacity:1;" d="M 140.683594 31.359375 L 140.789063 31.90625 L 141.246094 34.539063 C 141.378906 35.5625 141.636719 36.550781 141.78125 37.59375 C 141.839844 37.90625 141.875 38.144531 141.902344 38.253906 C 141.949219 38.566406 141.894531 38.835938 141.511719 38.886719 C 141.222656 38.929688 141.042969 38.765625 140.976563 38.363281 L 140.976563 38.316406 C 140.601563 35.867188 140.273438 33.371094 139.890625 30.898438 C 139.785156 30.21875 139.640625 29.207031 139.359375 27.878906 C 138.929688 25.125 138.867188 24.695313 138.527344 23.046875 C 142.488281 24.640625 146.46875 26.164063 150.492188 27.640625 L 154.03125 28.914063 C 153.9375 28.15625 153.84375 27.550781 153.761719 27.058594 C 153.539063 25.667969 153.285156 24.273438 153.0625 22.839844 C 153.003906 22.496094 152.96875 22.246094 152.921875 22.105469 C 152.867188 21.792969 152.8125 21.355469 153.226563 21.300781 C 153.554688 21.257813 153.691406 21.359375 153.78125 21.902344 L 154.105469 23.96875 L 154.441406 26.558594 C 154.644531 27.988281 154.832031 29.175781 154.964844 30.023438 C 155.332031 32.394531 155.804688 34.78125 156.175781 37.148438 C 151.082031 35.03125 145.90625 33.125 140.683594 31.359375 "/>
<path style=" stroke:none;fill-rule:evenodd;fill:rgb(13.299561%,12.199402%,12.5%);fill-opacity:1;" d="M 167.269531 21.066406 C 166.898438 21.070313 166.804688 21.113281 166.453125 21.144531 C 166.453125 23.773438 166.453125 26.417969 166.492188 29.0625 C 166.492188 30.292969 166.5 31.355469 166.546875 32.171875 L 166.613281 34.480469 L 166.636719 35.847656 C 166.945313 35.898438 167.074219 35.894531 167.359375 35.894531 C 171.777344 35.847656 175.15625 32.542969 175.085938 28.339844 C 175.054688 24.246094 171.589844 21.042969 167.269531 21.066406 M 167.445313 36.566406 C 162.953125 36.613281 159.117188 32.953125 159.085938 28.566406 C 159.011719 24.054688 162.742188 20.4375 167.402344 20.394531 C 172 20.347656 175.800781 23.96875 175.84375 28.398438 C 175.902344 32.871094 172.1875 36.527344 167.445313 36.566406 "/>
<path style=" stroke:none;fill-rule:evenodd;fill:rgb(13.299561%,12.199402%,12.5%);fill-opacity:1;" d="M 192.964844 37.898438 L 192.660156 37.878906 L 180.664063 36.441406 L 179.21875 36.269531 C 179.425781 34.882813 179.617188 33.5 179.816406 32.089844 L 180.167969 29.5 L 180.691406 25.4375 L 181.074219 22.179688 L 181.207031 21.140625 L 188.210938 21.980469 C 187.945313 23.980469 187.628906 26.042969 187.324219 28.058594 L 187.027344 30.691406 L 186.628906 33.78125 L 186.339844 36.378906 L 186.605469 36.398438 L 189.191406 36.714844 C 190.457031 36.84375 191.695313 36.949219 192.941406 37.101563 C 193.21875 37.109375 193.652344 37.175781 193.589844 37.570313 C 193.570313 37.878906 193.433594 37.945313 192.964844 37.898438 "/>
<path style=" stroke:none;fill-rule:evenodd;fill:rgb(13.299561%,12.199402%,12.5%);fill-opacity:1;" d="M 207.578125 25.792969 C 207.21875 25.691406 207.117188 25.671875 206.777344 25.644531 C 206.042969 28.179688 205.320313 30.726563 204.632813 33.277344 C 204.292969 34.480469 204.011719 35.5 203.816406 36.277344 L 203.246094 38.507813 L 202.886719 39.851563 C 203.191406 40 203.292969 40.023438 203.597656 40.105469 C 207.859375 41.199219 212.015625 38.863281 213.125 34.800781 C 214.195313 30.832031 211.757813 26.863281 207.578125 25.792969 M 203.480469 40.777344 C 199.125 39.65625 196.449219 35.144531 197.625 30.898438 C 198.800781 26.535156 203.371094 24.007813 207.898438 25.164063 C 212.34375 26.3125 215 30.765625 213.808594 35.050781 C 212.644531 39.390625 208.054688 41.9375 203.480469 40.777344 "/>
<path style=" stroke:none;fill-rule:evenodd;fill:rgb(13.299561%,12.199402%,12.5%);fill-opacity:1;" d="M 221.742188 46.769531 C 217.5 45.011719 215.535156 40.242188 217.371094 36.050781 C 219.144531 32.054688 224.125 30.179688 228.320313 31.90625 C 230.480469 32.792969 232.171875 34.539063 232.992188 36.71875 C 233.214844 37.363281 233.304688 37.722656 233.203125 37.941406 C 233.132813 38.117188 232.886719 38.167969 232.683594 38.070313 C 232.511719 38.007813 232.394531 37.894531 232.335938 37.558594 C 231.71875 35.144531 230.207031 33.414063 228.015625 32.507813 C 227.703125 32.378906 227.550781 32.339844 227.179688 32.222656 L 226.984375 32.683594 L 225.683594 35.582031 L 224.117188 39.105469 L 222.71875 42.261719 L 221.484375 45.214844 L 221.25 45.726563 C 221.515625 45.949219 221.648438 46.007813 221.996094 46.144531 C 225.683594 47.660156 229.996094 46.195313 231.765625 42.835938 L 226.785156 40.785156 C 226.433594 40.636719 226.074219 40.484375 225.734375 40.335938 C 225.328125 40.175781 225.246094 40.023438 225.363281 39.78125 C 225.453125 39.554688 225.644531 39.5 225.988281 39.65625 L 227.058594 40.082031 L 232.777344 42.445313 C 230.835938 46.707031 226.082031 48.566406 221.742188 46.769531 "/>
<path style=" stroke:none;fill-rule:evenodd;fill:rgb(13.299561%,12.199402%,12.5%);fill-opacity:1;" d="M 232.574219 51.195313 L 233.039063 50.472656 C 234.820313 47.394531 236.660156 44.355469 238.460938 41.25 L 240.0625 38.414063 L 240.351563 37.910156 L 246.488281 41.28125 L 246.105469 41.9375 L 244.441406 44.707031 L 242.507813 48.011719 L 240.757813 51 L 238.988281 54.054688 L 238.722656 54.566406 L 232.574219 51.195313 "/>
<path style=" stroke:none;fill-rule:evenodd;fill:rgb(13.299561%,12.199402%,12.5%);fill-opacity:1;" d="M 254.128906 62.539063 C 252.089844 62.820313 249.75 62.277344 248.121094 61.144531 C 244.320313 58.503906 243.453125 53.441406 246.175781 49.796875 C 248.832031 46.195313 254.09375 45.378906 257.78125 47.929688 C 259.875 49.390625 261.222656 51.6875 261.324219 54.054688 C 261.363281 54.46875 261.324219 54.714844 261.222656 54.867188 C 261.152344 54.984375 260.894531 55.019531 260.769531 54.914063 C 260.578125 54.785156 260.558594 54.664063 260.558594 54.261719 C 260.558594 51.960938 259.242188 49.777344 257.328125 48.460938 C 257.039063 48.257813 256.945313 48.203125 256.621094 48.066406 L 256.339844 48.4375 L 254.386719 51.011719 L 252.078125 54.113281 C 251.589844 54.769531 250.882813 55.710938 250.039063 56.894531 L 248.109375 59.523438 L 247.78125 59.972656 C 248.164063 60.292969 248.316406 60.429688 248.515625 60.578125 C 250.789063 62.167969 253.757813 62.335938 256.398438 61.105469 C 256.746094 60.945313 256.886719 60.917969 257.011719 61.027344 C 257.203125 61.144531 257.273438 61.351563 257.164063 61.46875 C 256.886719 61.84375 255.410156 62.355469 254.128906 62.539063 "/>
<path style=" stroke:none;fill-rule:evenodd;fill:rgb(13.299561%,12.199402%,12.5%);fill-opacity:1;" d="M 266.359375 63.429688 L 265.730469 63.574219 L 262.550781 64.464844 L 259.882813 65.179688 L 259.402344 65.335938 C 261.117188 66.910156 264.449219 69.972656 264.449219 69.972656 Z M 263.546875 73.035156 L 264.179688 70.832031 L 258.503906 65.574219 L 256.984375 66.015625 C 256.65625 66.136719 256.066406 66.445313 255.796875 66.164063 C 255.609375 66.015625 255.582031 65.792969 255.699219 65.667969 C 256.050781 65.324219 258.566406 64.757813 259.253906 64.578125 L 264.585938 63.152344 L 270.273438 61.601563 C 271.550781 61.25 272.914063 60.890625 274.175781 60.523438 L 269.316406 78.398438 L 263.546875 73.035156 "/>
<path style=" stroke:none;fill-rule:evenodd;fill:rgb(13.299561%,12.199402%,12.5%);fill-opacity:1;" d="M 295.332031 88.242188 C 295.027344 87.3125 294.527344 86.492188 293.980469 85.683594 L 289.289063 88.660156 C 287.667969 89.675781 286.507813 90.4375 285.75 90.933594 C 285.089844 91.355469 283.867188 92.179688 282.074219 93.367188 C 283.335938 95.203125 284.933594 96.648438 287.226563 97.085938 C 289.054688 97.367188 290.953125 97.023438 292.5 96.007813 C 295.066406 94.367188 296.253906 91.109375 295.332031 88.242188 M 281.863281 94.367188 L 280.785156 92.800781 L 277.546875 88.097656 C 280.285156 86.363281 282.382813 85.03125 283.910156 84.0625 C 285.734375 82.875 287.285156 81.855469 290.671875 79.628906 L 294.050781 84.507813 C 295.457031 86.558594 295.917969 87.421875 296.203125 88.640625 C 296.996094 91.597656 295.519531 94.941406 292.929688 96.617188 C 289.09375 99.089844 284.453125 97.992188 281.863281 94.367188 "/>
<path style=" stroke:none;fill-rule:evenodd;fill:rgb(13.299561%,12.199402%,12.5%);fill-opacity:1;" d="M 293.828125 115.453125 L 293.6875 115.125 L 287.921875 103.699219 L 295.53125 100.191406 C 297.730469 99.171875 299.921875 98.054688 302.109375 97.003906 L 307.457031 107.652344 L 307.75 108.203125 C 307.886719 108.5625 307.863281 108.753906 307.609375 108.875 C 307.332031 108.992188 307.175781 108.929688 307.011719 108.5625 L 306.980469 108.539063 L 304.535156 103.46875 L 301.269531 104.960938 L 301.402344 105.222656 L 304.054688 110.316406 C 304.347656 110.867188 304.3125 111.042969 304.03125 111.152344 C 303.738281 111.296875 303.566406 111.183594 303.308594 110.683594 C 302.835938 109.730469 302.382813 108.726563 301.890625 107.738281 L 300.722656 105.480469 L 300.628906 105.25 C 300.015625 105.515625 299.417969 105.792969 298.828125 106.082031 L 291.683594 109.511719 L 294.683594 115.28125 C 294.910156 115.726563 294.910156 115.933594 294.621094 116.066406 C 294.308594 116.21875 294.214844 116.144531 293.828125 115.453125 "/>
<path style=" stroke:none;fill-rule:evenodd;fill:rgb(13.299561%,12.199402%,12.5%);fill-opacity:1;" d="M 315.332031 136.609375 C 315.804688 134.972656 315.421875 133.070313 315 131.449219 L 314.257813 131.609375 L 310.332031 132.519531 L 306.941406 133.28125 C 305.921875 133.519531 304.964844 133.757813 303.949219 134.027344 C 303.917969 134.609375 304.03125 135.425781 304.253906 136.296875 C 305.042969 139.429688 308.085938 141.199219 311.285156 140.449219 C 313.105469 140.03125 314.851563 138.347656 315.332031 136.609375 M 303.511719 136.296875 C 303.34375 135.632813 303.273438 134.894531 303.179688 134.207031 C 302.273438 134.425781 301.347656 134.664063 300.445313 134.882813 L 298.773438 128.25 L 299.445313 128.085938 L 303.902344 127.082031 L 307.910156 126.160156 L 311.117188 125.367188 L 313.644531 124.75 L 314.105469 124.644531 L 315.34375 129.59375 C 315.890625 131.808594 316.214844 133.519531 316.296875 134.804688 C 316.433594 137.703125 314.363281 140.460938 311.417969 141.1875 C 307.785156 142.039063 304.425781 139.980469 303.511719 136.296875 "/>
<path style=" stroke:none;fill-rule:evenodd;fill:rgb(13.299561%,12.199402%,12.5%);fill-opacity:1;" d="M 312.671875 150.152344 L 312.09375 149.855469 L 309.085938 148.507813 L 306.578125 147.375 L 306.128906 147.1875 C 306.335938 149.445313 306.78125 153.875 306.78125 153.875 Z M 304.011719 155.605469 L 306.015625 154.367188 L 305.253906 146.789063 L 303.847656 146.144531 C 303.484375 146.042969 302.851563 145.886719 302.816406 145.488281 C 302.796875 145.292969 302.914063 145.09375 303.085938 145.085938 C 303.585938 145.039063 305.882813 146.21875 306.511719 146.5 L 311.507813 148.808594 L 316.863281 151.242188 C 318.066406 151.800781 319.335938 152.375 320.542969 152.90625 L 304.753906 163.335938 L 304.011719 155.605469 "/>
<path style=" stroke:none;fill-rule:evenodd;fill:rgb(13.299561%,12.199402%,12.5%);fill-opacity:1;" d="M 312.265625 166.632813 L 311.710938 166.59375 L 308.9375 166.523438 C 307.886719 166.457031 306.816406 166.488281 305.742188 166.4375 C 305.40625 166.421875 305.160156 166.398438 305.058594 166.421875 C 304.691406 166.398438 304.453125 166.292969 304.488281 165.90625 C 304.488281 165.632813 304.675781 165.488281 305.117188 165.519531 L 305.160156 165.519531 C 307.722656 165.621094 310.320313 165.824219 312.886719 165.953125 C 313.613281 165.980469 314.664063 166.042969 316.074219 166.070313 C 318.941406 166.195313 319.382813 166.222656 321.117188 166.230469 C 318.726563 169.667969 316.394531 173.140625 314.121094 176.664063 L 312.101563 179.753906 C 312.90625 179.808594 313.539063 179.851563 314.035156 179.878906 C 315.5 179.9375 316.972656 179.964844 318.4375 180.03125 C 318.796875 180.046875 319.085938 180.0625 319.21875 180.046875 C 319.566406 180.0625 320.011719 180.085938 319.996094 180.484375 C 319.980469 180.832031 319.824219 180.929688 319.277344 180.902344 L 317.097656 180.796875 L 314.414063 180.605469 C 312.929688 180.523438 311.710938 180.457031 310.789063 180.417969 C 308.316406 180.300781 305.8125 180.273438 303.34375 180.152344 C 306.484375 175.746094 309.449219 171.203125 312.265625 166.632813 "/>
<path style=" stroke:none;fill-rule:evenodd;fill:rgb(13.299561%,12.199402%,12.5%);fill-opacity:1;" d="M 311.683594 189.921875 L 311.21875 189.503906 L 308.734375 187.375 L 306.667969 185.621094 L 306.289063 185.320313 C 305.839844 187.550781 304.972656 191.90625 304.972656 191.90625 Z M 301.808594 192.832031 L 304.078125 192.160156 L 305.578125 184.722656 L 304.378906 183.714844 C 304.078125 183.5 303.519531 183.210938 303.601563 182.804688 C 303.636719 182.585938 303.808594 182.449219 303.988281 182.472656 C 304.476563 182.578125 306.328125 184.304688 306.851563 184.753906 L 310.972656 188.34375 L 315.398438 192.113281 C 316.394531 192.992188 317.414063 193.886719 318.460938 194.714844 L 300.285156 200.425781 L 301.808594 192.832031 "/>
<path style=" stroke:none;fill-rule:evenodd;fill:rgb(13.299561%,12.199402%,12.5%);fill-opacity:1;" d="M 294.960938 215.203125 L 303.378906 215.910156 L 298.308594 209.195313 L 306.414063 207.039063 C 304.71875 205.835938 302.988281 204.628906 301.199219 203.609375 C 300.707031 203.269531 299.480469 202.800781 299.757813 202.074219 C 299.859375 201.742188 300.046875 201.625 300.246094 201.71875 C 300.59375 201.824219 300.941406 202.175781 301.238281 202.410156 L 303.273438 203.882813 L 306.851563 206.425781 L 310.109375 208.777344 L 313.117188 210.914063 L 313.816406 211.402344 L 303.007813 214.089844 L 309.507813 222.6875 L 308.851563 222.632813 L 305.539063 222.386719 L 300.542969 222.050781 L 296.578125 221.8125 L 292.992188 221.589844 L 292.515625 221.550781 L 294.960938 215.203125 "/>
<path style=" stroke:none;fill-rule:evenodd;fill:rgb(13.299561%,12.199402%,12.5%);fill-opacity:1;" d="M 296.730469 232.449219 L 296.429688 231.902344 L 294.761719 229.101563 L 293.382813 226.796875 L 293.132813 226.402344 C 291.964844 228.375 289.691406 232.238281 289.691406 232.238281 Z M 286.398438 232.113281 L 288.789063 232.207031 L 292.664063 225.601563 L 291.863281 224.277344 C 291.628906 223.984375 291.222656 223.515625 291.417969 223.171875 C 291.519531 222.996094 291.722656 222.902344 291.886719 222.996094 C 292.316406 223.226563 293.503906 225.449219 293.855469 226.058594 L 296.578125 230.699219 L 299.515625 235.660156 C 300.1875 236.78125 300.867188 237.960938 301.550781 239.066406 L 282.441406 238.871094 L 286.398438 232.113281 "/>
<path style=" stroke:none;fill-rule:evenodd;fill:rgb(13.299561%,12.199402%,12.5%);fill-opacity:1;" d="M 144.421875 316.636719 C 144.554688 315.785156 144.699219 314.886719 144.855469 314.054688 L 145.429688 310.535156 L 145.917969 307.5 L 146.421875 304.261719 L 146.511719 303.785156 C 145.695313 303.878906 144.875 304.203125 144.074219 304.082031 C 143.878906 304.058594 143.742188 303.878906 143.792969 303.648438 C 143.855469 303.289063 143.921875 303.289063 145.097656 303.1875 C 146.4375 302.96875 147.847656 302.828125 149.203125 302.738281 L 153.332031 302.214844 C 153.160156 303.105469 153.03125 303.949219 152.867188 304.84375 L 152.410156 307.699219 C 152.058594 309.996094 151.738281 312.292969 151.394531 314.578125 L 151.046875 317.195313 L 151.011719 317.570313 L 144.421875 316.636719 "/>
<path style=" stroke:none;fill-rule:evenodd;fill:rgb(13.299561%,12.199402%,12.5%);fill-opacity:1;" d="M 160.691406 318.824219 C 158.945313 318.738281 157.367188 317.925781 156.59375 316.753906 C 156.484375 316.570313 156.386719 316.332031 156.386719 316.183594 C 156.386719 315.914063 156.652344 315.71875 156.964844 315.730469 C 157.605469 315.757813 157.617188 317.984375 160.839844 318.125 C 161.191406 318.144531 161.355469 318.125 161.808594 318.0625 L 161.816406 317.703125 L 162 314.582031 L 162.21875 310.746094 L 162.390625 307.34375 L 162.523438 304.101563 L 162.53125 303.550781 C 162.335938 303.539063 162.175781 303.503906 162.113281 303.503906 C 158.898438 303.355469 156.136719 305.636719 155.976563 308.882813 C 155.867188 310.792969 157.34375 312.4375 159.179688 312.523438 C 159.65625 312.546875 160.25 312.417969 160.667969 312.226563 C 161.042969 312.0625 161.125 312.03125 161.21875 312.03125 C 161.40625 312.03125 161.507813 312.171875 161.507813 312.367188 C 161.460938 313.039063 159.726563 313.292969 159.132813 313.261719 C 156.835938 313.148438 155.050781 311.152344 155.171875 308.800781 C 155.332031 305.238281 158.457031 302.632813 162.351563 302.804688 C 166.679688 302.984375 169.445313 306.320313 169.207031 311.042969 C 168.984375 315.601563 165.191406 319.046875 160.691406 318.824219 "/>
<path style=" stroke:none;fill-rule:evenodd;fill:rgb(13.299561%,12.199402%,12.5%);fill-opacity:1;" d="M 176.941406 314.867188 C 175.261719 314.167969 173.660156 313.410156 172.132813 312.476563 C 170.71875 313.253906 170.183594 313.953125 170.242188 314.972656 C 170.328125 316.960938 172.734375 318.246094 176.054688 318.089844 C 177.761719 318.015625 179.28125 317.328125 179.21875 316.667969 C 179.210938 316.101563 178.570313 315.597656 176.941406 314.867188 M 175.820313 303.453125 C 174.023438 303.539063 172.769531 304.160156 172.8125 304.875 C 172.875 306.316406 177.855469 307.898438 179.136719 308.445313 C 180.382813 307.660156 180.800781 307.066406 180.746094 305.9375 C 180.664063 304.289063 178.804688 303.308594 175.820313 303.453125 M 176.089844 318.832031 C 172.289063 319.011719 169.550781 317.410156 169.40625 315.023438 C 169.359375 313.757813 169.984375 312.835938 171.523438 311.945313 C 170.136719 310.75 169.550781 309.652344 169.460938 308.097656 C 169.296875 305.191406 172.140625 302.890625 176.101563 302.710938 C 179.375 302.574219 181.527344 303.808594 181.632813 305.984375 C 181.683594 307.121094 181.203125 307.910156 179.976563 308.761719 C 181.734375 309.792969 182.972656 310.914063 183.074219 313.007813 C 183.226563 316.023438 180.058594 318.640625 176.089844 318.832031 "/>
<path style=" stroke:none;fill-rule:evenodd;fill:rgb(13.299561%,12.199402%,12.5%);fill-opacity:1;" d="M 188.390625 317.472656 C 188.238281 316.625 188.140625 315.730469 188.035156 314.882813 L 187.527344 311.394531 L 187.097656 308.3125 L 186.628906 305.058594 L 186.554688 304.582031 C 185.8125 304.917969 185.125 305.457031 184.335938 305.566406 C 184.121094 305.59375 183.945313 305.457031 183.929688 305.226563 C 183.863281 304.867188 183.945313 304.824219 185.042969 304.394531 C 186.265625 303.839844 187.566406 303.308594 188.828125 302.828125 L 192.636719 301.195313 C 192.726563 302.085938 192.84375 302.945313 192.964844 303.820313 L 193.394531 306.710938 C 193.746094 309.003906 194.117188 311.289063 194.46875 313.582031 L 194.914063 316.175781 L 194.988281 316.558594 L 188.390625 317.472656 "/>
<path style=" stroke:none;fill-rule:evenodd;fill:rgb(16.862488%,32.156372%,20.783997%);fill-opacity:1;" d="M 274.054688 273.957031 C 272.226563 273.484375 269.703125 275.121094 269.703125 275.121094 L 268.550781 275.148438 C 270.363281 273.238281 272.144531 271.230469 273.859375 269.128906 C 279.15625 269.609375 284 265.132813 283.304688 257.386719 C 272.585938 259.59375 272.433594 265.757813 272.773438 268.097656 C 270.453125 270.105469 268.230469 272.015625 266.042969 273.789063 L 266.238281 272.824219 C 266.238281 272.824219 268.292969 270.644531 268.109375 268.832031 C 267.917969 267.019531 266.042969 265.210938 266.238281 263.761719 C 266.414063 262.316406 267.359375 260.855469 267.359375 260.855469 C 267.359375 260.855469 260.421875 263.941406 260.421875 267.929688 C 260.421875 271.917969 264.910156 273.375 264.910156 273.375 L 264.910156 274.726563 C 262.125 276.992188 259.4375 279.085938 256.84375 281 L 256.84375 280.984375 C 256.84375 280.984375 258.910156 278.800781 258.738281 276.992188 C 258.542969 275.1875 256.664063 273.375 256.84375 271.917969 C 257.039063 270.46875 257.96875 269.011719 257.96875 269.011719 C 257.96875 269.011719 251.03125 272.089844 251.03125 276.09375 C 251.03125 280.082031 255.535156 281.523438 255.535156 281.523438 L 255.535156 281.972656 C 251.949219 284.609375 248.542969 286.929688 245.335938 288.984375 L 245.417969 288.613281 C 245.417969 288.613281 247.476563 286.425781 247.28125 284.609375 C 247.105469 282.800781 245.230469 280.984375 245.417969 279.550781 C 245.589844 278.085938 246.535156 276.621094 246.535156 276.621094 C 246.535156 276.621094 239.605469 279.722656 239.605469 283.699219 C 239.605469 287.703125 244.085938 289.152344 244.085938 289.152344 L 244.085938 289.785156 C 240.5625 291.992188 237.265625 293.855469 234.179688 295.453125 L 234.351563 294.582031 C 234.351563 294.582031 236.402344 292.40625 236.214844 290.597656 C 236.027344 288.789063 234.171875 286.980469 234.351563 285.515625 C 234.539063 284.0625 235.472656 282.613281 235.472656 282.613281 C 235.472656 282.613281 228.53125 285.699219 228.53125 289.691406 C 228.53125 293.683594 233.039063 295.152344 233.039063 295.152344 L 233.039063 296.039063 C 228.800781 298.164063 225 299.753906 221.566406 300.984375 L 221.777344 299.847656 C 221.777344 299.847656 223.835938 297.691406 223.652344 295.859375 C 223.464844 294.042969 221.589844 292.246094 221.777344 290.804688 C 221.960938 289.328125 222.910156 287.875 222.910156 287.875 C 222.910156 287.875 215.964844 290.972656 215.964844 294.941406 C 215.964844 298.949219 220.457031 300.402344 220.457031 300.402344 L 220.457031 301.375 C 210.375 304.859375 203.574219 305.199219 198.714844 306.941406 C 195.527344 308.570313 199.648438 311.464844 199.648438 311.464844 C 201.09375 311.542969 209.859375 309.949219 221.566406 305.472656 L 222.363281 306.234375 C 222.363281 306.234375 220.226563 310.339844 223.128906 313.171875 C 226.023438 316.011719 233.203125 313.460938 233.203125 313.460938 C 233.203125 313.460938 231.488281 313.082031 230.277344 312.171875 C 229.105469 311.265625 229.113281 308.6875 227.941406 307.292969 C 226.742188 305.886719 223.6875 305.722656 223.6875 305.722656 L 222.660156 305.035156 C 226.222656 303.636719 230.066406 301.964844 234.03125 299.996094 L 235.15625 300.644531 C 235.15625 300.644531 234.117188 305.144531 237.671875 307.183594 C 241.203125 309.25 247.515625 305.0625 247.515625 305.0625 C 247.515625 305.0625 245.746094 305.101563 244.34375 304.492188 C 242.972656 303.910156 242.316406 301.441406 240.804688 300.339844 C 239.292969 299.253906 236.300781 299.847656 236.300781 299.847656 L 235.191406 299.429688 C 238.570313 297.710938 242.0625 295.753906 245.570313 293.601563 L 246.929688 294.207031 C 246.929688 294.207031 246.421875 298.773438 250.167969 300.460938 C 253.898438 302.121094 259.707031 297.324219 259.707031 297.324219 C 259.707031 297.324219 257.960938 297.550781 256.515625 297.097656 C 255.078125 296.65625 254.171875 294.246094 252.527344 293.332031 C 250.925781 292.382813 248 293.292969 248 293.292969 L 246.609375 292.953125 C 250.382813 290.542969 254.152344 287.886719 257.828125 284.921875 L 259.316406 285.375 C 259.316406 285.375 259.429688 289.945313 263.375 291.148438 C 267.3125 292.308594 272.410156 286.800781 272.410156 286.800781 C 272.410156 286.800781 270.703125 287.242188 269.199219 286.980469 C 267.71875 286.734375 266.5 284.453125 264.75 283.738281 C 263.015625 283.054688 260.242188 284.304688 260.242188 284.304688 L 258.785156 284.144531 C 261.816406 281.671875 264.773438 278.992188 267.613281 276.09375 L 268.941406 276.296875 C 268.941406 276.296875 269.734375 280.816406 273.796875 281.445313 C 277.863281 282.0625 282.101563 275.910156 282.101563 275.910156 C 282.101563 275.910156 280.472656 276.578125 278.957031 276.519531 C 277.445313 276.488281 275.882813 274.402344 274.054688 273.957031 "/>
<path style=" stroke:none;fill-rule:evenodd;fill:rgb(16.862488%,32.156372%,20.783997%);fill-opacity:1;" d="M 139.820313 306.941406 C 134.933594 305.195313 128.144531 304.859375 118.058594 301.378906 L 118.058594 300.410156 C 118.058594 300.410156 122.5625 298.953125 122.5625 294.941406 C 122.5625 290.96875 115.621094 287.871094 115.621094 287.871094 C 115.621094 287.871094 116.578125 289.324219 116.765625 290.804688 C 116.941406 292.246094 115.050781 294.042969 114.878906 295.867188 C 114.691406 297.691406 116.765625 299.847656 116.765625 299.847656 L 116.964844 300.988281 C 113.523438 299.75 109.722656 298.15625 105.492188 296.039063 L 105.492188 295.152344 C 105.492188 295.152344 110 293.683594 110 289.691406 C 110 285.707031 103.070313 282.613281 103.070313 282.613281 C 103.070313 282.613281 103.992188 284.066406 104.1875 285.519531 C 104.375 286.984375 102.5 288.789063 102.3125 290.597656 C 102.136719 292.40625 104.1875 294.585938 104.1875 294.585938 L 104.335938 295.453125 C 101.277344 293.851563 97.972656 291.996094 94.441406 289.785156 L 94.441406 289.152344 C 94.441406 289.152344 98.933594 287.703125 98.933594 283.703125 C 98.933594 279.730469 91.992188 276.625 91.992188 276.625 C 91.992188 276.625 92.925781 278.089844 93.125 279.546875 C 93.3125 280.988281 91.425781 282.800781 91.25 284.609375 C 91.066406 286.421875 93.125 288.617188 93.125 288.617188 L 93.1875 288.988281 C 89.984375 286.929688 86.617188 284.609375 83.003906 281.96875 L 83.003906 281.523438 C 83.003906 281.523438 87.472656 280.078125 87.472656 276.089844 C 87.472656 272.09375 80.546875 269.019531 80.546875 269.019531 C 80.546875 269.019531 81.488281 270.464844 81.675781 271.917969 C 81.863281 273.375 79.964844 275.191406 79.800781 276.992188 C 79.605469 278.800781 81.675781 280.988281 81.675781 280.988281 L 81.675781 280.996094 C 79.105469 279.078125 76.414063 276.992188 73.628906 274.722656 L 73.628906 273.375 C 73.628906 273.375 78.125 271.917969 78.125 267.933594 C 78.125 263.941406 71.179688 260.855469 71.179688 260.855469 C 71.179688 260.855469 72.105469 262.3125 72.285156 263.757813 C 72.488281 265.210938 70.609375 267.019531 70.425781 268.828125 C 70.226563 270.648438 72.285156 272.824219 72.285156 272.824219 L 72.488281 273.789063 C 70.296875 272.011719 68.0625 270.105469 65.753906 268.09375 C 66.105469 265.753906 65.941406 259.589844 55.238281 257.390625 C 54.515625 265.136719 59.371094 269.609375 64.675781 269.125 C 66.386719 271.230469 68.164063 273.238281 70.003906 275.148438 L 68.828125 275.117188 C 68.828125 275.117188 66.292969 273.484375 64.460938 273.957031 C 62.636719 274.40625 61.082031 276.488281 59.574219 276.527344 C 58.050781 276.578125 56.410156 275.910156 56.410156 275.910156 C 56.410156 275.910156 60.65625 282.0625 64.742188 281.449219 C 68.808594 280.816406 69.585938 276.296875 69.585938 276.296875 L 70.914063 276.089844 C 73.769531 278.992188 76.71875 281.675781 79.734375 284.140625 L 78.285156 284.300781 C 78.285156 284.300781 75.527344 283.054688 73.804688 283.738281 C 72.058594 284.453125 70.800781 286.734375 69.332031 286.984375 C 67.828125 287.242188 66.113281 286.796875 66.113281 286.796875 C 66.113281 286.796875 71.203125 292.304688 75.15625 291.144531 C 79.105469 289.945313 79.21875 285.375 79.21875 285.375 L 80.6875 284.921875 C 84.378906 287.886719 88.160156 290.546875 91.925781 292.953125 L 90.53125 293.292969 C 90.53125 293.292969 87.609375 292.386719 85.996094 293.324219 C 84.367188 294.246094 83.460938 296.652344 82.019531 297.09375 C 80.578125 297.550781 78.816406 297.328125 78.816406 297.328125 C 78.816406 297.328125 84.632813 302.121094 88.371094 300.460938 C 92.125 298.777344 91.585938 294.207031 91.585938 294.207031 L 92.972656 293.601563 C 96.46875 295.757813 99.957031 297.710938 103.351563 299.429688 L 102.230469 299.847656 C 102.230469 299.847656 99.238281 299.257813 97.695313 300.339844 C 96.210938 301.4375 95.558594 303.90625 94.183594 304.492188 C 92.796875 305.101563 91.019531 305.0625 91.019531 305.0625 C 91.019531 305.0625 97.320313 309.25 100.851563 307.183594 C 104.410156 305.144531 103.375 300.644531 103.375 300.644531 L 104.515625 299.996094 C 108.464844 301.964844 112.320313 303.636719 115.867188 305.042969 L 114.847656 305.722656 C 114.847656 305.722656 111.792969 305.886719 110.605469 307.292969 C 109.410156 308.691406 109.429688 311.261719 108.238281 312.175781 C 107.039063 313.078125 105.332031 313.464844 105.332031 313.464844 C 105.332031 313.464844 112.488281 316.011719 115.40625 313.175781 C 118.3125 310.339844 116.171875 306.234375 116.171875 306.234375 L 116.980469 305.472656 C 128.675781 309.953125 137.449219 311.542969 138.867188 311.464844 C 138.867188 311.464844 143 308.570313 139.820313 306.941406 "/>
<path style=" stroke:none;fill-rule:evenodd;fill:rgb(16.862488%,32.156372%,20.783997%);fill-opacity:1;" d="M 68.738281 142.503906 L 71 141.773438 L 71 137.777344 L 77.75 140.679688 L 83.359375 140.316406 L 88.230469 143.21875 L 88.230469 149.746094 L 93.882813 149.382813 L 92.738281 152.664063 L 97.992188 157.738281 L 102.136719 156.285156 L 106.996094 157 L 103.992188 151.5625 L 105.863281 149.746094 L 115.996094 158.457031 L 120.878906 159.191406 L 132.882813 159.546875 L 143.75 152.664063 L 155 149.382813 L 165.511719 142.847656 L 166.636719 144.667969 L 162.503906 149.382813 L 163.265625 152.285156 L 168.523438 149.023438 L 169.382813 151.199219 L 172.257813 150.476563 L 177.882813 154.828125 L 178.277344 157.382813 L 173.386719 158.832031 L 173.015625 164.632813 L 171.128906 167.898438 L 165.511719 168.261719 L 162.890625 173.332031 L 157.269531 176.976563 L 150.492188 176.976563 L 147.886719 179.507813 L 150.140625 184.222656 L 155 184.585938 L 166.257813 199.84375 L 162.503906 203.089844 L 155.765625 202.738281 L 152.757813 208.175781 L 135.875 209.265625 L 137.007813 202.738281 L 130.640625 193.304688 L 132.121094 188.210938 L 118.628906 188.570313 L 115.621094 184.960938 L 106.996094 183.140625 L 95.753906 177.679688 L 94.988281 180.230469 L 91.621094 176.601563 L 74.734375 176.601563 L 71 178.414063 L 72.105469 183.488281 L 69.855469 184.585938 L 64.980469 176.601563 L 69.855469 173.695313 L 72.871094 170.074219 L 71 162.082031 L 76.984375 157.382813 L 68.363281 152.664063 L 68.738281 142.503906 "/>
<path style=" stroke:none;fill-rule:evenodd;fill:rgb(16.862488%,32.156372%,20.783997%);fill-opacity:1;" d="M 168.144531 141.402344 L 169.382813 144.304688 L 173.386719 143.9375 L 170.386719 146.84375 L 172.257813 148.304688 L 176.75 147.949219 L 180.144531 154.457031 L 188.023438 151.5625 L 204.527344 161.730469 L 210.898438 160.277344 L 212.015625 173.695313 L 220.289063 192.566406 L 235.285156 207.066406 L 239.789063 199.84375 L 239.789063 194.011719 L 243.171875 197.664063 L 252.894531 190.386719 L 252.167969 186.402344 L 258.910156 179.15625 L 228.890625 143.21875 L 220.289063 143.21875 L 212.773438 138.511719 L 202.652344 140.308594 L 177.503906 134.5 L 176.019531 137.777344 L 168.144531 141.402344 "/>
<path style="fill:none;stroke-width:1.34;stroke-linecap:butt;stroke-linejoin:miter;stroke:rgb(13.299561%,12.199402%,12.5%);stroke-opacity:1;stroke-miterlimit:22.926;" d="M 1557.65625 2548.025 L 1741.328125 2820.251563 " transform="matrix(0.1,0,0,-0.1,0,339.24)"/>
<path style=" stroke:none;fill-rule:nonzero;fill:rgb(13.299561%,12.199402%,12.5%);fill-opacity:1;" d="M 155.847656 84.492188 L 174.222656 57.277344 L 174.050781 57.160156 L 155.6875 84.378906 "/>
<path style=" stroke:none;fill-rule:evenodd;fill:rgb(32.548523%,17.64679%,42.744446%);fill-opacity:1;" d="M 100.242188 105.125 L 70.226563 105.125 L 70.226563 126.890625 L 100.242188 126.890625 L 100.242188 105.125 "/>
<path style=" stroke:none;fill-rule:evenodd;fill:rgb(32.548523%,17.64679%,42.744446%);fill-opacity:1;" d="M 135.503906 105.125 L 169.382813 105.125 L 169.382813 126.890625 L 135.503906 126.890625 L 135.503906 105.125 "/>
<path style=" stroke:none;fill-rule:evenodd;fill:rgb(32.548523%,17.64679%,42.744446%);fill-opacity:1;" d="M 210.527344 105.125 L 181.273438 105.125 L 181.273438 126.890625 L 185.78125 126.890625 L 185.78125 197.660156 C 185.78125 197.660156 185.78125 220.878906 156.882813 220.878906 C 128.003906 220.878906 128.359375 197.660156 128.359375 197.660156 L 128.359375 126.890625 L 132.496094 126.890625 L 132.496094 105.125 L 103.242188 105.125 L 103.242188 126.890625 L 108.511719 126.890625 L 108.511719 197.660156 C 108.511719 200.917969 108.511719 239.738281 157.269531 239.738281 C 206.03125 239.738281 206.394531 200.546875 206.394531 197.660156 L 206.394531 126.890625 L 210.527344 126.890625 L 210.527344 105.125 "/>
<path style=" stroke:none;fill-rule:evenodd;fill:rgb(32.548523%,17.64679%,42.744446%);fill-opacity:1;" d="M 210.15625 166.691406 L 241.664063 166.691406 C 244.660156 166.691406 259.285156 163.890625 259.285156 145.394531 C 259.285156 126.890625 245.03125 126.890625 242.414063 126.890625 L 213.902344 126.890625 L 213.902344 105.125 L 242.027344 105.125 C 242.027344 105.125 279.539063 105.476563 279.539063 145.027344 C 279.539063 184.59375 246.898438 186.402344 241.664063 186.402344 L 210.15625 186.402344 L 210.15625 166.691406 "/>
<path style=" stroke:none;fill-rule:evenodd;fill:rgb(32.548523%,17.64679%,42.744446%);fill-opacity:1;" d="M 108.511719 243.015625 L 128.363281 243.015625 L 128.363281 237.210938 C 110.367188 227.40625 108.511719 214.347656 108.511719 214.347656 L 108.511719 243.015625 "/>
<path style=" stroke:none;fill-rule:evenodd;fill:rgb(32.548523%,17.64679%,42.744446%);fill-opacity:1;" d="M 206.394531 243.015625 L 186.511719 243.015625 L 186.511719 237.210938 C 204.527344 227.40625 206.394531 213.625 206.394531 213.625 L 206.394531 243.015625 "/>
<path style="fill:none;stroke-width:1.34;stroke-linecap:round;stroke-linejoin:round;stroke:rgb(13.299561%,12.199402%,12.5%);stroke-opacity:1;stroke-miterlimit:22.926;" d="M 863.828125 844.704688 L 863.828125 844.704688 " transform="matrix(0.1,0,0,-0.1,0,339.24)"/>
<path style="fill:none;stroke-width:1.34;stroke-linecap:round;stroke-linejoin:round;stroke:rgb(13.299561%,12.199402%,12.5%);stroke-opacity:1;stroke-miterlimit:22.926;" d="M 707.382813 919.314063 L 707.382813 919.314063 " transform="matrix(0.1,0,0,-0.1,0,339.24)"/>
<path style=" stroke:none;fill-rule:nonzero;fill:rgb(13.299561%,12.199402%,12.5%);fill-opacity:1;" d="M 86.382813 255 C 87.535156 255 88.628906 254.417969 89.585938 253.429688 C 92.457031 250.441406 94.414063 243.644531 94.414063 235.707031 C 94.414063 230.414063 93.546875 225.640625 92.113281 222.148438 C 91.398438 220.414063 90.550781 218.992188 89.585938 218 C 88.628906 217 87.535156 216.425781 86.382813 216.425781 C 85.203125 216.425781 84.125 217 83.15625 218 C 80.277344 220.976563 78.324219 227.777344 78.308594 235.707031 C 78.308594 241.003906 79.183594 245.789063 80.617188 249.273438 C 81.339844 251.015625 82.191406 252.4375 83.15625 253.429688 C 84.125 254.417969 85.203125 255 86.382813 255 L 86.617188 254.769531 L 86.382813 254.53125 C 85.378906 254.53125 84.414063 254.035156 83.492188 253.105469 C 80.765625 250.3125 78.785156 243.566406 78.785156 235.707031 C 78.785156 230.476563 79.660156 225.730469 81.058594 222.320313 C 81.757813 220.625 82.597656 219.25 83.492188 218.320313 C 84.414063 217.382813 85.378906 216.898438 86.382813 216.898438 C 87.371094 216.898438 88.335938 217.382813 89.25 218.320313 C 91.972656 221.121094 93.953125 227.859375 93.953125 235.707031 C 93.953125 240.945313 93.078125 245.691406 91.679688 249.097656 C 90.980469 250.804688 90.148438 252.171875 89.25 253.105469 C 88.335938 254.042969 87.371094 254.53125 86.382813 254.53125 L 86.136719 254.769531 L 86.382813 255 "/>
<path style=" stroke:none;fill-rule:nonzero;fill:rgb(13.299561%,12.199402%,12.5%);fill-opacity:1;" d="M 70.546875 247.449219 C 71.40625 248.527344 72.847656 249.011719 74.664063 249.011719 C 78.878906 249.007813 85.199219 246.40625 91.273438 241.886719 C 94.816406 239.269531 97.722656 236.394531 99.765625 233.691406 C 101.785156 230.972656 102.949219 228.425781 102.949219 226.375 C 102.949219 225.464844 102.722656 224.644531 102.199219 223.988281 C 101.347656 222.910156 99.878906 222.421875 98.074219 222.421875 C 93.84375 222.429688 87.535156 225.023438 81.476563 229.515625 C 77.941406 232.144531 75.015625 235.023438 72.984375 237.738281 C 70.953125 240.453125 69.789063 243.015625 69.789063 245.054688 C 69.789063 245.972656 70.03125 246.796875 70.546875 247.449219 L 70.878906 247.492188 L 70.929688 247.160156 C 70.472656 246.605469 70.261719 245.898438 70.261719 245.054688 C 70.257813 243.199219 71.359375 240.691406 73.371094 238.023438 C 75.363281 235.34375 78.253906 232.496094 81.757813 229.886719 C 87.75 225.4375 94.03125 222.886719 98.074219 222.894531 C 99.8125 222.894531 101.101563 223.355469 101.824219 224.277344 C 102.269531 224.839844 102.488281 225.546875 102.488281 226.375 C 102.488281 228.246094 101.378906 230.75 99.378906 233.410156 C 97.386719 236.078125 94.496094 238.910156 90.992188 241.503906 C 84.960938 245.996094 78.6875 248.554688 74.664063 248.546875 C 72.929688 248.542969 71.648438 248.078125 70.929688 247.160156 L 70.589844 247.121094 L 70.546875 247.449219 "/>
<path style=" stroke:none;fill-rule:nonzero;fill:rgb(13.299561%,12.199402%,12.5%);fill-opacity:1;" d="M 101.824219 247.167969 C 101.101563 248.082031 99.8125 248.542969 98.085938 248.546875 C 94.046875 248.554688 87.75 245.996094 81.757813 241.511719 C 78.253906 238.910156 75.363281 236.078125 73.371094 233.40625 C 71.359375 230.742188 70.257813 228.246094 70.261719 226.375 C 70.261719 225.542969 70.472656 224.839844 70.929688 224.277344 C 71.648438 223.355469 72.929688 222.894531 74.664063 222.894531 C 78.707031 222.882813 84.972656 225.4375 90.992188 229.886719 C 94.496094 232.496094 97.386719 235.34375 99.378906 238.023438 C 101.378906 240.691406 102.488281 243.199219 102.488281 245.054688 C 102.488281 245.898438 102.269531 246.605469 101.824219 247.160156 L 101.855469 247.492188 L 102.199219 247.449219 C 102.722656 246.792969 102.949219 245.972656 102.949219 245.054688 C 102.949219 243.015625 101.785156 240.453125 99.765625 237.742188 C 97.734375 235.023438 94.824219 232.144531 91.273438 229.515625 C 85.199219 225.023438 78.890625 222.429688 74.664063 222.421875 C 72.855469 222.421875 71.40625 222.910156 70.546875 223.988281 C 70.03125 224.644531 69.789063 225.464844 69.789063 226.375 C 69.789063 228.425781 70.953125 230.980469 72.984375 233.691406 C 75.015625 236.394531 77.941406 239.265625 81.476563 241.886719 C 87.535156 246.40625 93.859375 249.007813 98.085938 249.011719 C 99.890625 249.011719 101.347656 248.527344 102.199219 247.449219 L 102.152344 247.117188 L 101.824219 247.167969 "/>
<path style="fill:none;stroke-width:1.34;stroke-linecap:round;stroke-linejoin:round;stroke:rgb(13.299561%,12.199402%,12.5%);stroke-opacity:1;stroke-miterlimit:22.926;" d="M 1020.117188 919.314063 L 1020.117188 919.314063 " transform="matrix(0.1,0,0,-0.1,0,339.24)"/>
<path style=" stroke:none;fill-rule:nonzero;fill:rgb(13.299561%,12.199402%,12.5%);fill-opacity:1;" d="M 86.382813 232.871094 C 84.75 232.871094 83.421875 234.128906 83.421875 235.707031 C 83.421875 237.300781 84.75 238.574219 86.382813 238.574219 C 87.976563 238.574219 89.300781 237.300781 89.300781 235.707031 C 89.300781 234.128906 87.976563 232.871094 86.382813 232.871094 "/>
<path style=" stroke:none;fill-rule:nonzero;fill:rgb(13.299561%,12.199402%,12.5%);fill-opacity:1;" d="M 69.972656 244.441406 C 68.761719 244.441406 67.78125 245.367188 67.78125 246.550781 C 67.78125 247.730469 68.761719 248.675781 69.972656 248.679688 C 71.160156 248.675781 72.152344 247.734375 72.152344 246.550781 C 72.152344 245.367188 71.160156 244.441406 69.972656 244.441406 "/>
<path style=" stroke:none;fill-rule:nonzero;fill:rgb(13.299561%,12.199402%,12.5%);fill-opacity:1;" d="M 101.660156 245.171875 C 100.460938 245.171875 99.484375 246.117188 99.484375 247.300781 C 99.484375 248.472656 100.46875 249.402344 101.660156 249.40625 C 102.859375 249.402344 103.839844 248.472656 103.847656 247.300781 C 103.839844 246.117188 102.859375 245.183594 101.660156 245.171875 "/>
<path style=" stroke:none;fill-rule:evenodd;fill:rgb(13.299561%,12.199402%,12.5%);fill-opacity:1;" d="M 85.953125 215.074219 C 84.75 215.074219 83.78125 216.027344 83.78125 217.199219 C 83.78125 218.367188 84.761719 219.289063 85.953125 219.289063 C 87.148438 219.289063 88.128906 218.371094 88.128906 217.199219 C 88.128906 216.027344 87.148438 215.074219 85.953125 215.074219 "/>
<path style=" stroke:none;fill-rule:nonzero;fill:rgb(13.299561%,12.199402%,12.5%);fill-opacity:1;" d="M 145.714844 62.675781 C 145.714844 62.675781 146.535156 62.4375 147.898438 62.210938 C 149.273438 61.980469 151.171875 61.75 153.304688 61.75 C 157.199219 61.746094 161.886719 62.519531 165.59375 65.445313 L 165.75 65.261719 C 161.972656 62.28125 157.234375 61.507813 153.304688 61.507813 C 149 61.507813 145.65625 62.453125 145.65625 62.453125 L 145.714844 62.675781 "/>
<path style=" stroke:none;fill-rule:nonzero;fill:rgb(13.299561%,12.199402%,12.5%);fill-opacity:1;" d="M 143.816406 65.453125 C 143.816406 65.453125 144.636719 65.214844 145.992188 64.984375 C 147.351563 64.757813 149.257813 64.523438 151.402344 64.523438 C 155.289063 64.523438 159.96875 65.300781 163.683594 68.222656 L 163.84375 68.035156 C 160.0625 65.0625 155.328125 64.289063 151.402344 64.289063 C 147.085938 64.289063 143.75 65.222656 143.75 65.222656 L 143.816406 65.453125 "/>
<path style=" stroke:none;fill-rule:nonzero;fill:rgb(13.299561%,12.199402%,12.5%);fill-opacity:1;" d="M 142.230469 68.242188 C 142.230469 68.242188 143.058594 68.007813 144.414063 67.777344 C 145.789063 67.542969 147.6875 67.320313 149.824219 67.320313 C 153.714844 67.320313 158.394531 68.089844 162.113281 71.011719 L 162.265625 70.832031 C 158.472656 67.851563 153.738281 67.078125 149.824219 67.078125 C 145.507813 67.078125 142.175781 68.015625 142.175781 68.015625 L 142.230469 68.242188 "/>
<path style=" stroke:none;fill-rule:nonzero;fill:rgb(13.299561%,12.199402%,12.5%);fill-opacity:1;" d="M 151.621094 54.457031 C 151.621094 54.457031 152.441406 54.21875 153.804688 53.988281 C 155.171875 53.757813 157.074219 53.527344 159.203125 53.527344 C 163.105469 53.527344 167.785156 54.300781 171.496094 57.222656 L 171.65625 57.046875 C 167.863281 54.0625 163.125 53.289063 159.203125 53.289063 C 154.894531 53.289063 151.5625 54.222656 151.546875 54.222656 L 151.621094 54.457031 "/>
<path style=" stroke:none;fill-rule:nonzero;fill:rgb(13.299561%,12.199402%,12.5%);fill-opacity:1;" d="M 149.710938 57.222656 C 149.710938 57.21875 150.527344 56.988281 151.886719 56.761719 C 153.257813 56.527344 155.164063 56.289063 157.300781 56.289063 C 161.191406 56.289063 165.875 57.066406 169.589844 59.988281 L 169.730469 59.800781 C 165.960938 56.828125 161.222656 56.054688 157.300781 56.054688 C 152.980469 56.054688 149.648438 56.996094 149.644531 56.996094 L 149.710938 57.222656 "/>
<path style=" stroke:none;fill-rule:nonzero;fill:rgb(13.299561%,12.199402%,12.5%);fill-opacity:1;" d="M 148.136719 60.011719 C 148.136719 60.011719 148.953125 59.78125 150.3125 59.546875 C 151.691406 59.308594 153.589844 59.078125 155.722656 59.078125 C 159.625 59.078125 164.304688 59.851563 168.003906 62.777344 L 168.164063 62.597656 C 164.386719 59.617188 159.644531 58.851563 155.722656 58.851563 C 151.410156 58.851563 148.082031 59.785156 148.070313 59.785156 L 148.136719 60.011719 "/>
<path style=" stroke:none;fill-rule:nonzero;fill:rgb(13.299561%,12.199402%,12.5%);fill-opacity:1;" d="M 140.3125 70.664063 C 140.3125 70.664063 141.132813 70.429688 142.496094 70.207031 C 143.859375 69.96875 145.769531 69.738281 147.898438 69.738281 C 151.792969 69.738281 156.488281 70.507813 160.1875 73.433594 L 160.347656 73.25 C 156.574219 70.28125 151.832031 69.5 147.898438 69.5 C 143.589844 69.5 140.253906 70.441406 140.253906 70.441406 L 140.3125 70.664063 "/>
<path style=" stroke:none;fill-rule:nonzero;fill:rgb(13.299561%,12.199402%,12.5%);fill-opacity:1;" d="M 138.402344 73.460938 C 138.402344 73.460938 139.226563 73.214844 140.585938 72.984375 C 141.949219 72.75 143.859375 72.523438 146.003906 72.523438 C 149.898438 72.523438 154.582031 73.289063 158.28125 76.226563 L 158.433594 76.039063 C 154.660156 73.066406 149.914063 72.289063 146.003906 72.289063 C 141.683594 72.289063 138.347656 73.226563 138.347656 73.226563 L 138.402344 73.460938 "/>
<path style=" stroke:none;fill-rule:nonzero;fill:rgb(13.299561%,12.199402%,12.5%);fill-opacity:1;" d="M 136.828125 76.242188 C 136.828125 76.242188 137.65625 76.007813 139.011719 75.777344 C 140.390625 75.546875 142.292969 75.3125 144.429688 75.3125 C 148.324219 75.3125 153.007813 76.082031 156.71875 79.007813 L 156.863281 78.824219 C 153.089844 75.855469 148.359375 75.074219 144.429688 75.074219 C 140.109375 75.074219 136.773438 76.015625 136.773438 76.015625 L 136.828125 76.242188 "/>
<path style=" stroke:none;fill-rule:nonzero;fill:rgb(13.299561%,12.199402%,12.5%);fill-opacity:1;" d="M 173.253906 64.371094 C 173.253906 64.371094 174.078125 64.140625 175.453125 63.910156 C 176.800781 63.671875 178.707031 63.445313 180.839844 63.445313 C 184.730469 63.445313 189.410156 64.21875 193.128906 67.132813 L 193.265625 66.960938 C 189.503906 63.984375 184.765625 63.210938 180.839844 63.210938 C 176.535156 63.210938 173.199219 64.144531 173.1875 64.144531 L 173.253906 64.371094 "/>
<path style=" stroke:none;fill-rule:nonzero;fill:rgb(13.299561%,12.199402%,12.5%);fill-opacity:1;" d="M 171.347656 67.15625 C 171.347656 67.15625 172.167969 66.917969 173.535156 66.6875 C 174.902344 66.449219 176.800781 66.21875 178.945313 66.21875 C 182.832031 66.21875 187.515625 66.992188 191.214844 69.917969 L 191.367188 69.734375 C 187.589844 66.761719 182.867188 65.980469 178.945313 65.980469 C 174.621094 65.980469 171.292969 66.921875 171.28125 66.921875 L 171.347656 67.15625 "/>
<path style=" stroke:none;fill-rule:nonzero;fill:rgb(13.299561%,12.199402%,12.5%);fill-opacity:1;" d="M 169.757813 69.945313 C 169.757813 69.945313 170.589844 69.710938 171.953125 69.476563 C 173.328125 69.242188 175.226563 69.015625 177.371094 69.015625 C 181.261719 69.015625 185.9375 69.789063 189.644531 72.703125 L 189.792969 72.53125 C 186.023438 69.550781 181.277344 68.773438 177.371094 68.773438 C 173.050781 68.773438 169.703125 69.722656 169.699219 69.722656 L 169.757813 69.945313 "/>
<path style=" stroke:none;fill-rule:nonzero;fill:rgb(13.299561%,12.199402%,12.5%);fill-opacity:1;" d="M 179.136719 56.148438 C 179.136719 56.148438 179.964844 55.910156 181.328125 55.683594 C 182.691406 55.445313 184.589844 55.21875 186.730469 55.21875 C 190.636719 55.21875 195.324219 55.980469 199.019531 58.910156 L 199.171875 58.726563 C 195.398438 55.75 190.660156 54.980469 186.730469 54.980469 C 182.425781 54.980469 179.082031 55.917969 179.070313 55.917969 L 179.136719 56.148438 "/>
<path style=" stroke:none;fill-rule:nonzero;fill:rgb(13.299561%,12.199402%,12.5%);fill-opacity:1;" d="M 177.238281 58.925781 C 177.238281 58.925781 178.058594 58.695313 179.425781 58.460938 C 180.792969 58.222656 182.691406 57.996094 184.824219 57.996094 C 188.726563 57.988281 193.402344 58.765625 197.121094 61.691406 L 197.269531 61.503906 C 193.484375 58.53125 188.75 57.753906 184.824219 57.753906 C 180.511719 57.753906 177.183594 58.695313 177.175781 58.695313 L 177.238281 58.925781 "/>
<path style=" stroke:none;fill-rule:nonzero;fill:rgb(13.299561%,12.199402%,12.5%);fill-opacity:1;" d="M 175.671875 61.714844 C 175.671875 61.714844 176.484375 61.476563 177.859375 61.25 C 179.21875 61.015625 181.121094 60.78125 183.261719 60.78125 C 187.152344 60.78125 191.835938 61.554688 195.535156 64.472656 L 195.691406 64.289063 C 191.914063 61.328125 187.175781 60.550781 183.261719 60.550781 C 178.945313 60.550781 175.609375 61.484375 175.601563 61.484375 L 175.671875 61.714844 "/>
<path style=" stroke:none;fill-rule:nonzero;fill:rgb(13.299561%,12.199402%,12.5%);fill-opacity:1;" d="M 167.839844 72.367188 C 167.851563 72.363281 168.667969 72.128906 170.03125 71.894531 C 171.394531 71.664063 173.292969 71.441406 175.4375 71.441406 C 179.328125 71.441406 184.003906 72.207031 187.722656 75.136719 L 187.875 74.953125 C 184.101563 71.984375 179.359375 71.199219 175.4375 71.199219 C 171.128906 71.199219 167.785156 72.132813 167.785156 72.132813 L 167.839844 72.367188 "/>
<path style=" stroke:none;fill-rule:nonzero;fill:rgb(13.299561%,12.199402%,12.5%);fill-opacity:1;" d="M 165.929688 75.144531 C 165.929688 75.144531 166.757813 74.90625 168.117188 74.679688 C 169.488281 74.445313 171.390625 74.210938 173.523438 74.210938 C 177.417969 74.210938 182.101563 74.984375 185.8125 77.914063 L 185.960938 77.726563 C 182.175781 74.753906 177.441406 73.980469 173.523438 73.980469 C 169.207031 73.980469 165.875 74.917969 165.867188 74.917969 L 165.929688 75.144531 "/>
<path style=" stroke:none;fill-rule:nonzero;fill:rgb(13.299561%,12.199402%,12.5%);fill-opacity:1;" d="M 164.359375 77.9375 C 164.359375 77.9375 165.1875 77.699219 166.546875 77.464844 C 167.914063 77.234375 169.820313 77.003906 171.96875 77.003906 C 175.851563 77.003906 180.523438 77.777344 184.238281 80.699219 L 184.382813 80.511719 C 180.621094 77.539063 175.875 76.765625 171.96875 76.765625 C 167.644531 76.765625 164.304688 77.710938 164.292969 77.710938 L 164.359375 77.9375 "/>
<path style=" stroke:none;fill-rule:evenodd;fill:rgb(85.488892%,15.293884%,18.03894%);fill-opacity:1;" d="M 86.382813 238.191406 C 87.765625 238.191406 88.933594 237.085938 88.933594 235.707031 C 88.933594 234.351563 87.765625 233.246094 86.382813 233.246094 C 84.960938 233.246094 83.808594 234.351563 83.808594 235.707031 C 83.808594 237.085938 84.960938 238.191406 86.382813 238.191406 "/>
<path style=" stroke:none;fill-rule:evenodd;fill:rgb(85.488892%,15.293884%,18.03894%);fill-opacity:1;" d="M 85.953125 218.917969 C 86.9375 218.917969 87.738281 218.148438 87.738281 217.199219 C 87.738281 216.242188 86.9375 215.449219 85.953125 215.449219 C 84.960938 215.449219 84.171875 216.242188 84.171875 217.199219 C 84.171875 218.148438 84.960938 218.917969 85.953125 218.917969 "/>
<path style=" stroke:none;fill-rule:evenodd;fill:rgb(85.488892%,15.293884%,18.03894%);fill-opacity:1;" d="M 69.972656 248.300781 C 70.953125 248.300781 71.765625 247.519531 71.765625 246.550781 C 71.765625 245.589844 70.953125 244.8125 69.972656 244.8125 C 68.957031 244.8125 68.15625 245.589844 68.15625 246.550781 C 68.15625 247.519531 68.957031 248.300781 69.972656 248.300781 "/>
<path style=" stroke:none;fill-rule:evenodd;fill:rgb(85.488892%,15.293884%,18.03894%);fill-opacity:1;" d="M 101.660156 249.03125 C 102.65625 249.03125 103.464844 248.253906 103.464844 247.300781 C 103.464844 246.335938 102.65625 245.550781 101.660156 245.550781 C 100.675781 245.550781 99.867188 246.335938 99.867188 247.300781 C 99.867188 248.253906 100.675781 249.03125 101.660156 249.03125 "/>
<path style=" stroke:none;fill-rule:nonzero;fill:rgb(13.299561%,12.199402%,12.5%);fill-opacity:1;" d="M 252.871094 235.195313 C 252.917969 235.394531 252.957031 235.5625 253.011719 235.726563 C 253 236.195313 252.640625 236.542969 252.160156 236.589844 L 243.089844 236.589844 C 242.589844 235.601563 241.75 234.804688 240.738281 234.308594 L 240.738281 225.539063 C 240.78125 225.097656 241.144531 224.75 241.621094 224.742188 C 241.777344 224.757813 241.945313 224.816406 242.144531 224.875 L 242.15625 224.875 L 242.15625 224.878906 C 247.382813 226.179688 251.484375 230.144531 252.871094 235.195313 M 240.375 238.875 C 240.375 239.933594 239.488281 240.800781 238.367188 240.808594 C 237.265625 240.800781 236.371094 239.933594 236.371094 238.875 C 236.371094 237.816406 237.265625 236.945313 238.367188 236.945313 C 239.488281 236.945313 240.375 237.816406 240.375 238.875 M 223.878906 235.195313 C 225.265625 230.144531 229.371094 226.179688 234.59375 224.878906 L 234.609375 224.875 C 234.804688 224.816406 234.984375 224.757813 235.140625 224.742188 C 235.605469 224.746094 235.972656 225.097656 236.019531 225.535156 L 236.019531 234.3125 C 235 234.804688 234.179688 235.601563 233.671875 236.589844 L 224.585938 236.589844 C 224.105469 236.542969 223.765625 236.199219 223.753906 235.726563 C 223.789063 235.550781 223.835938 235.382813 223.878906 235.195313 M 223.875 242.53125 C 223.835938 242.363281 223.789063 242.1875 223.753906 242.011719 C 223.765625 241.574219 224.105469 241.21875 224.59375 241.148438 L 233.671875 241.148438 C 234.179688 242.160156 235 242.949219 236.019531 243.445313 L 236.019531 252.21875 C 235.980469 252.667969 235.605469 253.023438 235.121094 253.035156 C 234.960938 252.992188 234.757813 252.933594 234.578125 252.878906 L 234.5625 252.878906 C 229.347656 251.554688 225.238281 247.574219 223.875 242.53125 M 241.636719 253.035156 C 241.144531 253.023438 240.796875 252.675781 240.738281 252.214844 L 240.738281 243.445313 C 241.75 242.949219 242.589844 242.167969 243.101563 241.148438 L 252.160156 241.148438 C 252.640625 241.21875 253 241.574219 253.011719 242.007813 C 252.957031 242.1875 252.929688 242.363281 252.878906 242.496094 L 252.871094 242.519531 L 252.871094 242.53125 C 251.515625 247.574219 247.429688 251.554688 242.199219 252.878906 C 241.992188 252.933594 241.808594 252.992188 241.636719 253.035156 M 257.945313 236.449219 C 257.84375 235.632813 257.679688 234.832031 257.460938 234.050781 L 260.757813 232.773438 L 258.964844 228.378906 L 255.65625 229.644531 C 255.152344 228.765625 254.582031 227.945313 253.96875 227.15625 L 256.457031 224.742188 L 252.988281 221.371094 L 250.484375 223.8125 C 249.773438 223.257813 248.996094 222.753906 248.199219 222.3125 L 249.539063 219.128906 L 245.042969 217.328125 L 243.679688 220.484375 C 242.722656 220.222656 241.738281 220.042969 240.738281 219.914063 L 240.738281 216.457031 L 235.832031 216.457031 L 235.832031 219.941406 C 234.898438 220.0625 233.980469 220.238281 233.085938 220.484375 L 231.710938 217.328125 L 227.183594 219.136719 L 228.5625 222.3125 C 227.765625 222.753906 226.992188 223.257813 226.261719 223.8125 L 223.738281 221.371094 L 220.292969 224.742188 L 222.808594 227.15625 C 222.175781 227.949219 221.613281 228.769531 221.109375 229.644531 L 217.820313 228.378906 L 216.003906 232.773438 L 219.285156 234.054688 C 219.074219 234.832031 218.921875 235.632813 218.816406 236.449219 L 215.15625 236.449219 L 215.15625 241.21875 L 218.792969 241.21875 C 218.898438 242.0625 219.074219 242.902344 219.285156 243.703125 L 216.003906 244.988281 L 217.820313 249.390625 L 221.109375 248.113281 C 221.613281 248.972656 222.175781 249.808594 222.808594 250.601563 L 220.292969 253.027344 L 223.738281 256.359375 L 226.261719 253.953125 C 226.992188 254.503906 227.765625 255 228.5625 255.4375 L 227.183594 258.621094 L 231.710938 260.4375 L 233.085938 257.269531 C 233.980469 257.511719 234.898438 257.699219 235.832031 257.816406 L 235.832031 261.214844 L 240.738281 261.214844 L 240.738281 257.839844 C 241.75 257.730469 242.722656 257.523438 243.679688 257.269531 L 245.042969 260.4375 L 249.539063 258.621094 L 248.199219 255.4375 C 248.996094 255 249.761719 254.511719 250.492188 253.957031 L 252.988281 256.359375 L 256.457031 253.027344 L 253.96875 250.601563 C 254.582031 249.816406 255.152344 248.984375 255.65625 248.113281 L 258.964844 249.390625 L 260.757813 244.988281 L 257.460938 243.703125 C 257.679688 242.894531 257.855469 242.0625 257.960938 241.21875 L 261.394531 241.21875 L 261.394531 236.449219 L 257.945313 236.449219 "/>
<path style=" stroke:none;fill-rule:evenodd;fill:rgb(68.626404%,52.548218%,17.64679%);fill-opacity:1;" d="M 242.878906 236.96875 C 242.390625 235.886719 241.472656 235.003906 240.347656 234.53125 L 240.347656 225.507813 C 240.417969 224.863281 240.960938 224.359375 241.644531 224.359375 C 241.851563 224.390625 242.050781 224.460938 242.253906 224.515625 C 247.609375 225.847656 251.824219 229.917969 253.242188 235.09375 C 253.289063 235.316406 253.351563 235.507813 253.394531 235.707031 C 253.394531 236.386719 252.859375 236.910156 252.199219 236.96875 Z M 236.402344 234.53125 C 235.285156 235.003906 234.378906 235.886719 233.890625 236.96875 L 224.5625 236.96875 C 223.878906 236.910156 223.359375 236.386719 223.359375 235.707031 C 223.417969 235.507813 223.464844 235.316406 223.523438 235.09375 C 224.929688 229.917969 229.136719 225.847656 234.507813 224.515625 C 234.707031 224.460938 234.898438 224.390625 235.121094 224.359375 C 235.789063 224.359375 236.347656 224.863281 236.402344 225.507813 Z M 252.203125 240.777344 C 252.859375 240.863281 253.394531 241.371094 253.394531 242.039063 C 253.351563 242.226563 253.3125 242.429688 253.242188 242.625 C 251.855469 247.796875 247.65625 251.886719 242.292969 253.25 C 242.074219 253.304688 241.863281 253.375 241.664063 253.425781 C 240.960938 253.425781 240.417969 252.90625 240.347656 252.25 L 240.347656 243.226563 C 241.472656 242.742188 242.390625 241.886719 242.878906 240.777344 Z M 233.890625 240.777344 C 234.378906 241.886719 235.285156 242.742188 236.402344 243.226563 L 236.402344 252.25 C 236.347656 252.90625 235.789063 253.425781 235.097656 253.425781 C 234.890625 253.375 234.667969 253.304688 234.46875 253.25 C 229.109375 251.886719 224.910156 247.796875 223.5 242.625 C 223.464844 242.429688 223.417969 242.226563 223.359375 242.039063 C 223.371094 241.371094 223.878906 240.863281 224.546875 240.777344 Z M 238.367188 241.179688 C 237.054688 241.179688 235.980469 240.148438 235.980469 238.875 C 235.980469 237.597656 237.054688 236.5625 238.367188 236.5625 C 239.6875 236.5625 240.757813 237.597656 240.757813 238.875 C 240.757813 240.148438 239.6875 241.179688 238.367188 241.179688 M 261.027344 240.839844 L 261.027344 236.832031 L 257.625 236.832031 C 257.507813 235.800781 257.296875 234.789063 257.011719 233.824219 L 260.265625 232.558594 L 258.738281 228.863281 L 255.488281 230.109375 C 254.917969 229.046875 254.21875 228.058594 253.453125 227.113281 L 255.910156 224.746094 L 252.988281 221.898438 L 250.53125 224.3125 C 249.652344 223.609375 248.707031 222.988281 247.710938 222.464844 L 247.726563 222.464844 L 249.042969 219.339844 L 245.253906 217.816406 L 243.90625 220.929688 C 242.761719 220.597656 241.5625 220.367188 240.347656 220.238281 L 240.347656 216.828125 L 236.214844 216.828125 L 236.214844 220.261719 C 235.074219 220.394531 233.941406 220.605469 232.851563 220.929688 L 231.5 217.816406 L 227.691406 219.339844 L 229.039063 222.464844 C 228.050781 222.988281 227.097656 223.609375 226.222656 224.3125 L 223.738281 221.898438 L 220.84375 224.746094 L 223.308594 227.113281 C 222.535156 228.058594 221.859375 229.046875 221.265625 230.109375 L 218.023438 228.863281 L 216.496094 232.558594 L 219.738281 233.824219 C 219.457031 234.789063 219.257813 235.800781 219.144531 236.832031 L 215.546875 236.832031 L 215.546875 240.839844 L 219.132813 240.839844 C 219.222656 241.894531 219.457031 242.9375 219.738281 243.9375 L 216.496094 245.199219 L 218.023438 248.902344 L 221.265625 247.652344 C 221.859375 248.699219 222.535156 249.707031 223.308594 250.640625 L 220.84375 253.03125 L 223.738281 255.828125 L 226.222656 253.464844 C 227.097656 254.15625 228.050781 254.769531 229.039063 255.277344 L 227.691406 258.40625 L 231.5 259.949219 L 232.851563 256.828125 C 233.941406 257.136719 235.074219 257.375 236.214844 257.492188 L 236.214844 260.84375 L 240.347656 260.84375 L 240.347656 257.507813 C 241.5625 257.40625 242.761719 257.144531 243.90625 256.828125 L 245.253906 259.949219 L 249.042969 258.40625 L 247.726563 255.277344 C 248.707031 254.769531 249.652344 254.15625 250.53125 253.464844 L 252.988281 255.828125 L 255.910156 253.03125 L 253.453125 250.640625 C 254.21875 249.707031 254.917969 248.699219 255.488281 247.652344 L 258.738281 248.902344 L 260.265625 245.199219 L 257.011719 243.9375 C 257.296875 242.9375 257.515625 241.894531 257.636719 240.839844 L 261.027344 240.839844 "/>
</g>
</svg>
